<mxfile host="app.diagrams.net" agent="Mozilla/5.0 (Macintosh; Intel Mac OS X 10_15_7) AppleWebKit/537.36 (KHTML, like Gecko) Chrome/140.0.0.0 Safari/537.36" version="28.2.8">
  <diagram name="Simple Architecture" id="simple-architecture">
    <mxGraphModel dx="1625" dy="777" grid="1" gridSize="10" guides="1" tooltips="1" connect="1" arrows="1" fold="1" page="1" pageScale="1" pageWidth="200" pageHeight="800" math="0" shadow="0">
      <root>
        <mxCell id="0" />
        <mxCell id="1" parent="0" />
        <mxCell id="server-layer" value="&amp;nbsp;Server Layer" style="rounded=1;whiteSpace=wrap;html=1;fillColor=#f8cecc;strokeColor=#b85450;align=left;verticalAlign=top;fontSize=16;fontStyle=1;opacity=20;" parent="1" vertex="1">
          <mxGeometry x="240" y="300" width="680" height="180" as="geometry" />
        </mxCell>
        <mxCell id="T6b7CAbE1X9xuzdlVGs--22" value="&lt;div&gt;&lt;br&gt;&lt;/div&gt;&amp;nbsp; &amp;nbsp; &amp;nbsp; &amp;nbsp; &amp;nbsp; &amp;nbsp; &amp;nbsp;&lt;div&gt;&amp;nbsp; &amp;nbsp; &amp;nbsp; &amp;nbsp; &amp;nbsp; &amp;nbsp; &amp;nbsp;Raspberry PI&lt;/div&gt;" style="rounded=0;whiteSpace=wrap;html=1;fillColor=#f5f5f5;strokeColor=#666666;align=left;verticalAlign=top;fontSize=16;fontStyle=1;opacity=20;fontColor=#333333;" vertex="1" parent="1">
          <mxGeometry x="60" y="80" width="880" height="680" as="geometry" />
        </mxCell>
        <mxCell id="arrow1" value="HTTP/HTTPS" style="edgeStyle=orthogonalEdgeStyle;rounded=0;orthogonalLoop=1;jettySize=auto;html=1;entryX=0;entryY=0.5;entryDx=0;entryDy=0;strokeWidth=3;fontSize=12;fontStyle=1;strokeColor=#0e7490;labelBackgroundColor=none;" parent="1" edge="1">
          <mxGeometry x="1" y="-250" relative="1" as="geometry">
            <mxPoint x="200" y="-100" as="offset" />
            <mxPoint x="10" y="180" as="sourcePoint" />
            <mxPoint x="480" y="179.9999999999999" as="targetPoint" />
          </mxGeometry>
        </mxCell>
        <mxCell id="client-layer" value="&amp;nbsp;Client Layer" style="rounded=1;whiteSpace=wrap;html=1;fillColor=#dae8fc;strokeColor=#6c8ebf;align=left;verticalAlign=top;fontSize=16;fontStyle=1;opacity=20;" parent="1" vertex="1">
          <mxGeometry x="240" y="100" width="680" height="160" as="geometry" />
        </mxCell>
        <mxCell id="user" value="" style="shape=actor;whiteSpace=wrap;html=1;fillColor=#A2AABA;strokeColor=#314057;fontSize=14;fontStyle=1;strokeWidth=4;" parent="1" vertex="1">
          <mxGeometry x="-80" y="140" width="80" height="80" as="geometry" />
        </mxCell>
        <mxCell id="user-label" value="👤 User/Client" style="text;html=1;strokeColor=none;fillColor=none;align=center;verticalAlign=middle;whiteSpace=wrap;rounded=0;fontSize=14;fontStyle=1;" parent="1" vertex="1">
          <mxGeometry x="-105" y="227.5" width="130" height="25" as="geometry" />
        </mxCell>
        <mxCell id="frontend" value="" style="rounded=1;whiteSpace=wrap;html=1;fillColor=#0050ef;strokeColor=#001DBC;fontSize=14;fontStyle=1;fontColor=#ffffff;" parent="1" vertex="1">
          <mxGeometry x="480" y="140" width="240" height="80" as="geometry" />
        </mxCell>
        <mxCell id="frontend-label" value="React Frontend" style="text;html=1;strokeColor=none;fillColor=none;align=left;verticalAlign=middle;whiteSpace=wrap;rounded=0;fontSize=13;fontStyle=1;fontColor=#ffffff;" parent="1" vertex="1">
          <mxGeometry x="570" y="152.5" width="100.63" height="17.5" as="geometry" />
        </mxCell>
        <mxCell id="frontend-tech" value="Vite + React" style="text;html=1;strokeColor=none;fillColor=none;align=left;verticalAlign=middle;whiteSpace=wrap;rounded=0;fontSize=11;fontColor=#ffffff;" parent="1" vertex="1">
          <mxGeometry x="570" y="192.5" width="90" height="20" as="geometry" />
        </mxCell>
        <mxCell id="backend" value="" style="rounded=1;whiteSpace=wrap;html=1;fillColor=light-dark(#000000, #ffd7ed);strokeColor=#B20000;fontSize=14;fontStyle=1;fontColor=#ffffff;" parent="1" vertex="1">
          <mxGeometry x="480" y="340" width="240" height="100" as="geometry" />
        </mxCell>
        <mxCell id="arrow2" value="REST API + JWT Auth" style="edgeStyle=orthogonalEdgeStyle;rounded=0;orthogonalLoop=1;jettySize=auto;html=1;exitX=0.5;exitY=1;exitDx=0;exitDy=0;entryX=0.5;entryY=0;entryDx=0;entryDy=0;strokeWidth=3;fontSize=12;fontStyle=1;strokeColor=#e0234e;" parent="1" source="frontend" target="backend" edge="1">
          <mxGeometry relative="1" as="geometry">
            <mxPoint as="offset" />
          </mxGeometry>
        </mxCell>
        <mxCell id="backend-label" value="NestJS Backend" style="text;html=1;strokeColor=none;fillColor=none;align=left;verticalAlign=middle;whiteSpace=wrap;rounded=0;fontSize=14;fontStyle=1;fontColor=#ffffff;" parent="1" vertex="1">
          <mxGeometry x="570" y="355" width="140" height="25" as="geometry" />
        </mxCell>
        <mxCell id="backend-tech" value="TypeORM • JWT • Swagger" style="text;html=1;strokeColor=none;fillColor=none;align=left;verticalAlign=middle;whiteSpace=wrap;rounded=0;fontSize=10;fontColor=#ffffff;" parent="1" vertex="1">
          <mxGeometry x="570" y="405" width="140" height="20" as="geometry" />
        </mxCell>
        <mxCell id="external-layer" value="External Services &amp; Storage" style="rounded=1;whiteSpace=wrap;html=1;fillColor=#fff2cc;strokeColor=#d6b656;align=left;verticalAlign=top;fontSize=16;fontStyle=1;opacity=20;" parent="1" vertex="1">
          <mxGeometry x="80" y="520" width="840" height="220" as="geometry" />
        </mxCell>
        <mxCell id="postgres" value="" style="shape=cylinder3;whiteSpace=wrap;html=1;boundedLbl=1;backgroundOutline=1;size=15;fillColor=#336791;strokeColor=#23415c;fontColor=#ffffff;fontSize=14;fontStyle=1;" parent="1" vertex="1">
          <mxGeometry x="160" y="570" width="140" height="120" as="geometry" />
        </mxCell>
        <mxCell id="postgres-label" value="PostgreSQL" style="text;html=1;strokeColor=none;fillColor=none;align=center;verticalAlign=middle;whiteSpace=wrap;rounded=0;fontSize=13;fontStyle=1;fontColor=#ffffff;" parent="1" vertex="1">
          <mxGeometry x="180" y="635" width="100" height="20" as="geometry" />
        </mxCell>
        <mxCell id="postgres-desc" value="Database" style="text;html=1;strokeColor=none;fillColor=none;align=center;verticalAlign=middle;whiteSpace=wrap;rounded=0;fontSize=11;fontColor=#ffffff;" parent="1" vertex="1">
          <mxGeometry x="180" y="655" width="100" height="20" as="geometry" />
        </mxCell>
        <mxCell id="git-storage" value="" style="shape=cylinder3;whiteSpace=wrap;html=1;boundedLbl=1;backgroundOutline=1;size=15;fillColor=#f05032;strokeColor=#c83c1e;fontColor=#ffffff;fontSize=14;fontStyle=1;" parent="1" vertex="1">
          <mxGeometry x="350" y="570" width="140" height="120" as="geometry" />
        </mxCell>
        <mxCell id="git-icon" value="📁" style="text;html=1;strokeColor=none;fillColor=none;align=center;verticalAlign=middle;whiteSpace=wrap;rounded=0;fontSize=30;" parent="1" vertex="1">
          <mxGeometry x="390" y="590" width="60" height="40" as="geometry" />
        </mxCell>
        <mxCell id="git-label" value="Git Storage" style="text;html=1;strokeColor=none;fillColor=none;align=center;verticalAlign=middle;whiteSpace=wrap;rounded=0;fontSize=13;fontStyle=1;fontColor=#ffffff;" parent="1" vertex="1">
          <mxGeometry x="370" y="635" width="100" height="20" as="geometry" />
        </mxCell>
        <mxCell id="git-desc" value="Repository Files" style="text;html=1;strokeColor=none;fillColor=none;align=center;verticalAlign=middle;whiteSpace=wrap;rounded=0;fontSize=11;fontColor=#ffffff;" parent="1" vertex="1">
          <mxGeometry x="370" y="655" width="100" height="20" as="geometry" />
        </mxCell>
        <mxCell id="smtp" value="" style="rounded=1;whiteSpace=wrap;html=1;fillColor=#ffa500;strokeColor=#d67300;fontColor=#ffffff;fontSize=14;fontStyle=1;" parent="1" vertex="1">
          <mxGeometry x="540" y="570" width="150" height="120" as="geometry" />
        </mxCell>
        <mxCell id="smtp-label" value="SMTP Server" style="text;html=1;strokeColor=none;fillColor=none;align=left;verticalAlign=middle;whiteSpace=wrap;rounded=0;fontSize=13;fontStyle=1;fontColor=#ffffff;" parent="1" vertex="1">
          <mxGeometry x="572.5" y="635" width="85" height="20" as="geometry" />
        </mxCell>
        <mxCell id="smtp-desc" value="Email Verification" style="text;html=1;strokeColor=none;fillColor=none;align=left;verticalAlign=middle;whiteSpace=wrap;rounded=0;fontSize=10;fontColor=#ffffff;" parent="1" vertex="1">
          <mxGeometry x="575" y="647.5" width="80" height="35" as="geometry" />
        </mxCell>
        <mxCell id="claude" value="" style="rounded=1;whiteSpace=wrap;html=1;fillColor=#d97757;strokeColor=#b85c3d;fontColor=#ffffff;fontSize=14;fontStyle=1;" parent="1" vertex="1">
          <mxGeometry x="740" y="570" width="160" height="120" as="geometry" />
        </mxCell>
        <mxCell id="claude-label" value="Claude AI" style="text;html=1;strokeColor=none;fillColor=none;align=left;verticalAlign=middle;whiteSpace=wrap;rounded=0;fontSize=13;fontStyle=1;fontColor=#ffffff;" parent="1" vertex="1">
          <mxGeometry x="785" y="635" width="70" height="20" as="geometry" />
        </mxCell>
        <mxCell id="claude-desc" value="AI Conflict&amp;nbsp;&lt;span style=&quot;background-color: transparent; color: light-dark(rgb(255, 255, 255), rgb(18, 18, 18));&quot;&gt;Resolution&lt;/span&gt;" style="text;html=1;strokeColor=none;fillColor=none;align=left;verticalAlign=middle;whiteSpace=wrap;rounded=0;fontSize=10;fontColor=#ffffff;" parent="1" vertex="1">
          <mxGeometry x="770" y="647.5" width="100" height="35" as="geometry" />
        </mxCell>
        <mxCell id="arrow3" value="TypeORM" style="edgeStyle=orthogonalEdgeStyle;rounded=0;orthogonalLoop=1;jettySize=auto;html=1;exitX=0;exitY=0.5;exitDx=0;exitDy=0;entryX=0.5;entryY=0;entryDx=0;entryDy=0;entryPerimeter=0;strokeWidth=2;fontSize=11;fontStyle=1;strokeColor=#336791;" parent="1" source="backend" target="postgres" edge="1">
          <mxGeometry x="0.1161" relative="1" as="geometry">
            <mxPoint as="offset" />
            <Array as="points">
              <mxPoint x="350" y="390" />
              <mxPoint x="350" y="550" />
              <mxPoint x="230" y="550" />
            </Array>
          </mxGeometry>
        </mxCell>
        <mxCell id="arrow4" value="Simple-git" style="edgeStyle=orthogonalEdgeStyle;rounded=0;orthogonalLoop=1;jettySize=auto;html=1;exitX=0.25;exitY=1;exitDx=0;exitDy=0;entryX=0.5;entryY=0;entryDx=0;entryDy=0;entryPerimeter=0;strokeWidth=2;fontSize=11;fontStyle=1;strokeColor=#f05032;" parent="1" source="backend" target="git-storage" edge="1">
          <mxGeometry relative="1" as="geometry">
            <Array as="points">
              <mxPoint x="540" y="500" />
              <mxPoint x="420" y="500" />
            </Array>
          </mxGeometry>
        </mxCell>
        <mxCell id="arrow5" value="Nodemailer" style="edgeStyle=orthogonalEdgeStyle;rounded=0;orthogonalLoop=1;jettySize=auto;html=1;entryX=0.5;entryY=0;entryDx=0;entryDy=0;strokeWidth=2;fontSize=11;fontStyle=1;strokeColor=#ffa500;" parent="1" target="smtp" edge="1">
          <mxGeometry x="-0.0769" relative="1" as="geometry">
            <mxPoint as="offset" />
            <mxPoint x="615" y="440" as="sourcePoint" />
            <Array as="points">
              <mxPoint x="615" y="440" />
            </Array>
          </mxGeometry>
        </mxCell>
        <mxCell id="arrow6" value="API" style="edgeStyle=orthogonalEdgeStyle;rounded=0;orthogonalLoop=1;jettySize=auto;html=1;exitX=1;exitY=0.5;exitDx=0;exitDy=0;entryX=0.5;entryY=0;entryDx=0;entryDy=0;strokeWidth=2;fontSize=11;fontStyle=1;strokeColor=#d97757;" parent="1" source="backend" target="claude" edge="1">
          <mxGeometry x="0.4511" relative="1" as="geometry">
            <mxPoint as="offset" />
          </mxGeometry>
        </mxCell>
        <mxCell id="T6b7CAbE1X9xuzdlVGs--1" value="" style="shape=image;verticalLabelPosition=bottom;labelBackgroundColor=default;verticalAlign=top;aspect=fixed;imageAspect=0;editableCssRules=.*;image=data:image/svg+xml,PHN2ZyB4bWxucz0iaHR0cDovL3d3dy53My5vcmcvMjAwMC9zdmciIGZpbGw9Im5vbmUiIHZpZXdCb3g9IjEgMy4wMDAwMDExOTIwOTI4OTU1IDMwIDI2IiBoZWlnaHQ9IjY1MCIgd2lkdGg9Ijc1MCI+JiN4YTs8cGF0aCBmaWxsPSIjNTNDMURFIiBkPSJNMTguNjc4OSAxNS45NzU5QzE4LjY3ODkgMTQuNTQxNSAxNy40Nzk2IDEzLjM3ODUgMTYgMTMuMzc4NUMxNC41MjA2IDEzLjM3ODUgMTMuMzIxMSAxNC41NDE1IDEzLjMyMTEgMTUuOTc1OUMxMy4zMjExIDE3LjQxMDUgMTQuNTIwNiAxOC41NzM0IDE2IDE4LjU3MzRDMTcuNDc5NiAxOC41NzM0IDE4LjY3ODkgMTcuNDEwNSAxOC42Nzg5IDE1Ljk3NTlaIi8+JiN4YTs8cGF0aCBmaWxsPSIjNTNDMURFIiBkPSJNMjQuNzAwNCAxMS4xNTM3QzI1LjI2NjEgOC45MjQ3OCAyNS45NzcyIDQuNzkxNDggMjMuNDcwNCAzLjM5MDE2QzIwLjk3NTMgMS45OTQ5NSAxNy43Mjg0IDQuNjY4NDMgMTYuMDEzOSA2LjI3MzE4QzE0LjMwNDQgNC42ODQ0MiAxMC45NjYzIDIuMDIyMzcgOC40NjE2MyAzLjQyODE0QzUuOTY3NTEgNC44MjgwMyA2LjczNjY0IDguODkyOCA3LjMxNDkgMTEuMTM1N0M0Ljk4ODMxIDExLjc3NjQgMSAxMy4xNTY0IDEgMTUuOTc1OUMxIDE4Ljc4NzQgNC45ODQxNiAyMC4yODg4IDcuMjk2OTggMjAuOTI4OUM2LjcxNjU4IDIzLjE4NDIgNS45ODU5NiAyNy4xOTA5IDguNDgzMjcgMjguNTg3N0MxMC45OTczIDI5Ljk5MzIgMTQuMzI1IDI3LjM5NDUgMTYuMDU1NCAyNS43NzIyQzE3Ljc4MDkgMjcuMzg2NCAyMC45OTY2IDMwLjAwMjEgMjMuNDkyMiAyOC42MDE0QzI1Ljk5NTYgMjcuMTk2MyAyNS4zNDM2IDIzLjExODQgMjQuNzY1MyAyMC44NjI1QzI3LjAwNzMgMjAuMjIxIDMxIDE4Ljc1MjMgMzEgMTUuOTc1OUMzMSAxMy4xODM1IDI2Ljk5MDMgMTEuNzkyMyAyNC43MDA0IDExLjE1MzdaTTI0LjQxNjIgMTkuNjY3QzI0LjAzNjUgMTguNTAxNiAyMy41MjQgMTcuMjYyMyAyMi44OTcxIDE1Ljk4MjFDMjMuNDk1NSAxNC43MzIxIDIzLjk4ODEgMTMuNTA4OCAyNC4zNTcyIDEyLjM1MDlDMjYuMDM1OSAxMi44MjI4IDI5LjcxODUgMTMuOTAxMyAyOS43MTg1IDE1Ljk3NTlDMjkuNzE4NSAxOC4wNyAyNi4xODQ2IDE5LjE1ODcgMjQuNDE2MiAxOS42NjdaTTIyLjg1IDI3LjUyNkMyMC45ODggMjguNTcxIDE4LjIyMjEgMjYuMDY5NiAxNi45NDc4IDI0Ljg4MDlDMTcuNzkzMiAyMy45ODQ0IDE4LjYzOCAyMi45NDIyIDE5LjQ2MjUgMjEuNzg0OUMyMC45MTI5IDIxLjY2MDIgMjIuMjgzIDIxLjQ1NjIgMjMuNTI1NiAyMS4xNzc3QzIzLjkzMjYgMjIuNzczNCAyNC43MjAyIDI2LjQ3NjMgMjIuODUgMjcuNTI2Wk05LjEyMzYyIDI3LjUxMTFDNy4yNjE0MyAyNi40NyA4LjExMjU4IDIyLjg5NDYgOC41Mzk1NyAyMS4yMzMzQzkuNzY4MzQgMjEuNDk2OSAxMS4xMjg2IDIxLjY4NjUgMTIuNTgyNCAyMS44MDA4QzEzLjQxMjMgMjIuOTMzMiAxNC4yODE2IDIzLjk3NDEgMTUuMTU3NiAyNC44ODU3QzE0LjA3NTMgMjUuOTAwOCAxMC45OTQ1IDI4LjU1NyA5LjEyMzYyIDI3LjUxMTFaTTIuMjgxNDkgMTUuOTc1OUMyLjI4MTQ5IDEzLjg3NCA1Ljk0MjA3IDEyLjgwMzMgNy42NTkwNCAxMi4zMzI2QzguMDM0NTEgMTMuNTE2NSA4LjUyNjk1IDE0Ljc1NDQgOS4xMjEyMyAxNi4wMDYyQzguNTE5MjUgMTcuMjc2NiA4LjAxOTc3IDE4LjUzNDEgNy42NDA4NSAxOS43MzJDNi4wMDM2OSAxOS4yNzc2IDIuMjgxNDkgMTguMDc5MSAyLjI4MTQ5IDE1Ljk3NTlaTTkuMTAzNyA0LjUwMzU0QzEwLjk3MzUgMy40NTQxNiAxMy44NzQ3IDYuMDA5ODMgMTUuMTE1OSA3LjE2MDEzQzE0LjI0NDQgOC4wNjc1NCAxMy4zODMxIDkuMTAwNiAxMi41NjAzIDEwLjIyNjVDMTEuMTQ5NCAxMC4zNTMzIDkuNzk4NzUgMTAuNTU2OSA4LjU1NzA5IDEwLjgyOTdDOC4wOTEyNSA5LjAyMDcxIDcuMjM1OTIgNS41NTE3OSA5LjEwMzcgNC41MDM1NFpNMjAuMzc5MyAxMS41NzcxQzIxLjMzNjUgMTEuNjk0MiAyMi4yNTM2IDExLjg1IDIzLjExNDcgMTIuMDQwNkMyMi44NTYyIDEyLjg0NCAyMi41MzQgMTMuNjg0MSAyMi4xNTQ1IDE0LjU0NTNDMjEuNjA0NCAxMy41MzMzIDIxLjAxMzkgMTIuNTQxNiAyMC4zNzkzIDExLjU3NzFaTTE2LjAxNDMgOC4wNDgxQzE2LjYwNTQgOC42Njg5NyAxNy4xOTc0IDkuMzYyMyAxNy43Nzk4IDEwLjExNDVDMTYuNTk4NSAxMC4wNjAzIDE1LjQxNTMgMTAuMDYwMSAxNC4yMzQgMTAuMTEzN0MxNC44MTY5IDkuMzY4NDggMTUuNDE0IDguNjc2MTggMTYuMDE0MyA4LjA0ODFaTTkuODU2NSAxNC41NDQ0QzkuNDgzMjkgMTMuNjg2MiA5LjE2Mzk4IDEyLjg0MjQgOC45MDMyMiAxMi4wMjc1QzkuNzU5MTggMTEuODQxOCAxMC42NzIgMTEuNjkgMTEuNjIzIDExLjU3NDhDMTAuOTg2NiAxMi41MzcyIDEwLjM5NzEgMTMuNTI4NSA5Ljg1NjUgMTQuNTQ0NFpNMTEuNjUwMyAyMC40NjU3QzEwLjY2NzkgMjAuMzU5NCA5Ljc0MTI2IDIwLjIxNTMgOC44ODU1NiAyMC4wMzQ3QzkuMTUwNDQgMTkuMjA1NSA5LjQ3Njc4IDE4LjM0MzUgOS44NTc5NiAxNy40NjY4QzEwLjQwNiAxOC40OTMzIDExLjAwNDUgMTkuNDk0MiAxMS42NTAzIDIwLjQ2NTdaTTE2LjA0OTggMjMuOTkxNUMxNS40NDI0IDIzLjM1NiAxNC44MzY1IDIyLjY1MzEgMTQuMjQ0OCAyMS44OTcxQzE1LjQzMjggMjEuOTQyMyAxNi42MjMxIDIxLjk0MjQgMTcuODExIDIxLjg5MUMxNy4yMjY4IDIyLjY2MDggMTYuNjM2OSAyMy4zNjQ3IDE2LjA0OTggMjMuOTkxNVpNMjIuMTY2NyAxNy40MjIyQzIyLjU2NzcgMTguMzA4NCAyMi45MDU3IDE5LjE2NTcgMjMuMTc0MiAxOS45ODA5QzIyLjMwNDMgMjAuMTczNCAyMS4zNjUyIDIwLjMyODQgMjAuMzc1NyAyMC40NDM1QzIxLjAxNSAxOS40NjA3IDIxLjYxNDkgMTguNDUzNiAyMi4xNjY3IDE3LjQyMjJaTTE4Ljc0NzMgMjAuNTk0MUMxNi45MzAxIDIwLjcyIDE1LjEwMTYgMjAuNzE4NiAxMy4yODM4IDIwLjYwNDRDMTIuMjUwOSAxOS4xNDE1IDExLjMzMTQgMTcuNjAzIDEwLjUzNzcgMTYuMDA1OEMxMS4zMjc2IDE0LjQxMTkgMTIuMjQwNCAxMi44NzY0IDEzLjI2ODQgMTEuNDE1OEMxNS4wODc1IDExLjI4MjUgMTYuOTE3OCAxMS4yODIxIDE4LjczNjkgMTEuNDE2NkMxOS43NTYxIDEyLjg3NzEgMjAuNjY3NSAxNC40MDg2IDIxLjQ3NTcgMTUuOTg4MUMyMC42NzcxIDE3LjU4MTIgMTkuNzU5NSAxOS4xMTk4IDE4Ljc0NzMgMjAuNTk0MVpNMjIuODMwMyA0LjQ2NjZDMjQuNzAwNiA1LjUxMjU0IDIzLjg2ODEgOS4yMjcyNiAyMy40NTk1IDEwLjg0MjZDMjIuMjE0OSAxMC41NjQxIDIwLjg2MzMgMTAuMzU2OSAxOS40NDgzIDEwLjIyODFDMTguNjIzOSA5LjA5MDA0IDE3Ljc2OTggOC4wNTUxOCAxNi45MTI0IDcuMTU5NDlDMTguMTY5NSA1Ljk4NDQxIDIwLjk3ODEgMy40MzA4OSAyMi44MzAzIDQuNDY2NloiIGNsaXAtcnVsZT0iZXZlbm9kZCIgZmlsbC1ydWxlPSJldmVub2RkIi8+JiN4YTs8L3N2Zz4=;" vertex="1" parent="1">
          <mxGeometry x="501" y="155" width="57.69" height="50" as="geometry" />
        </mxCell>
        <mxCell id="T6b7CAbE1X9xuzdlVGs--3" value="" style="shape=image;verticalLabelPosition=bottom;labelBackgroundColor=default;verticalAlign=top;aspect=fixed;imageAspect=0;editableCssRules=.*;image=data:image/svg+xml,PHN2ZyB4bWxucz0iaHR0cDovL3d3dy53My5vcmcvMjAwMC9zdmciIHByZXNlcnZlQXNwZWN0UmF0aW89InhNaW5ZTWluIG1lZXQiIHZpZXdCb3g9IjAuMjk3MjU0NTYyMzc3OTI5NyAwLjM2NDQ3MDMwMzA1ODYyNDI3IDI1NS4zODY2MTE5Mzg0NzY1NiAyNjMuMjk4NTIyOTQ5MjE4NzUiIGhlaWdodD0iNzk3Ljg3NDMxMTk2NzMyOTUiIHdpZHRoPSI3NzMuODk4ODI0MDU1OTg5NSI+PHBhdGggZD0iTTI1NS4wMDggMTU4LjA4NmMtMS41MzUtNC42NDktNS41NTYtNy44ODctMTAuNzU2LTguNjY0LTIuNDUyLS4zNjYtNS4yNi0uMjEtOC41ODMuNDc1LTUuNzkyIDEuMTk1LTEwLjA4OSAxLjY1LTEzLjIyNSAxLjczOCAxMS44MzctMTkuOTg1IDIxLjQ2Mi00Mi43NzUgMjcuMDAzLTY0LjIyOCA4Ljk2LTM0LjY4OSA0LjE3Mi01MC40OTItMS40MjMtNTcuNjRDMjMzLjIxNyAxMC44NDcgMjExLjYxNC42ODMgMTg1LjU1Mi4zNzJjLTEzLjkwMy0uMTctMjYuMTA4IDIuNTc1LTMyLjQ3NSA0LjU0OS01LjkyOC0xLjA0Ni0xMi4zMDItMS42My0xOC45OS0xLjczOC0xMi41MzctLjItMjMuNjE0IDIuNTMzLTMzLjA3OSA4LjE1LTUuMjQtMS43NzItMTMuNjUtNC4yNy0yMy4zNjItNS44NjQtMjIuODQyLTMuNzUtNDEuMjUyLS44MjgtNTQuNzE4IDguNjg1QzYuNjIyIDI1LjY3Mi0uOTM3IDQ1LjY4NC40NjEgNzMuNjM0Yy40NDQgOC44NzQgNS40MDggMzUuODc0IDEzLjIyNCA2MS40OCA0LjQ5MiAxNC43MTggOS4yODIgMjYuOTQgMTQuMjM3IDM2LjMzIDcuMDI3IDEzLjMxNSAxNC41NDYgMjEuMTU2IDIyLjk4NyAyMy45NzIgNC43MzEgMS41NzYgMTMuMzI3IDIuNjggMjIuMzY4LTQuODUgMS4xNDYgMS4zODggMi42NzUgMi43NjcgNC43MDQgNC4wNDggMi41NzcgMS42MjUgNS43MjggMi45NTMgOC44NzUgMy43NCAxMS4zNDEgMi44MzUgMjEuOTY0IDIuMTI2IDMxLjAyNy0xLjg0OC4wNTYgMS42MTIuMDk5IDMuMTUyLjEzNSA0LjQ4Mi4wNiAyLjE1Ny4xMiA0LjI3Mi4xOTkgNi4yNS41MzcgMTMuMzc0IDEuNDQ3IDIzLjc3MyA0LjE0MyAzMS4wNDkuMTQ4LjQuMzQ3IDEuMDEuNTU3IDEuNjU3IDEuMzQ1IDQuMTE4IDMuNTk0IDExLjAxMiA5LjMxNiAxNi40MTEgNS45MjUgNS41OTMgMTMuMDkyIDcuMzA4IDE5LjY1NiA3LjMwOCAzLjI5MiAwIDYuNDMzLS40MzIgOS4xODgtMS4wMjIgOS44Mi0yLjEwNSAyMC45NzMtNS4zMTEgMjkuMDQxLTE2Ljc5OSA3LjYyOC0xMC44NiAxMS4zMzYtMjcuMjE3IDEyLjAwNy01Mi45OS4wODctLjcyOS4xNjctMS40MjUuMjQ0LTIuMDg4bC4xNi0xLjM2MiAxLjc5Ny4xNTguNDYzLjAzMWMxMC4wMDIuNDU2IDIyLjIzMi0xLjY2NSAyOS43NDMtNS4xNTQgNS45MzUtMi43NTQgMjQuOTU0LTEyLjc5NSAyMC40NzYtMjYuMzUxIi8+PHBhdGggZmlsbD0iIzMzNjc5MSIgZD0iTTIzNy45MDYgMTYwLjcyMmMtMjkuNzQgNi4xMzUtMzEuNzg1LTMuOTM0LTMxLjc4NS0zLjkzNCAzMS40LTQ2LjU5MyA0NC41MjctMTA1LjczNiAzMy4yLTEyMC4yMTEtMzAuOTA0LTM5LjQ4NS04NC4zOTktMjAuODExLTg1LjI5Mi0yMC4zMjdsLS4yODcuMDUyYy01Ljg3Ni0xLjIyLTEyLjQ1MS0xLjk0Ni0xOS44NDItMi4wNjctMTMuNDU2LS4yMi0yMy42NjQgMy41MjgtMzEuNDEgOS40MDIgMCAwLTk1LjQzLTM5LjMxNC05MC45OTEgNDkuNDQ0Ljk0NCAxOC44ODIgMjcuMDY0IDE0Mi44NzMgNTguMjE4IDEwNS40MjIgMTEuMzg3LTEzLjY5NSAyMi4zOS0yNS4yNzQgMjIuMzktMjUuMjc0IDUuNDY0IDMuNjMgMTIuMDA2IDUuNDgyIDE4Ljg2NCA0LjgxN2wuNTMzLS40NTJjLS4xNjYgMS43LS4wOSAzLjM2My4yMTMgNS4zMzItOC4wMjYgOC45NjctNS42NjcgMTAuNTQxLTIxLjcxMSAxMy44NDQtMTYuMjM1IDMuMzQ2LTYuNjk4IDkuMzAyLS40NzEgMTAuODYgNy41NDkgMS44ODcgMjUuMDEzIDQuNTYxIDM2LjgxMy0xMS45NThsLS40NyAxLjg4NWMzLjE0NCAyLjUxOSA1LjM1MiAxNi4zODMgNC45ODIgMjguOTUyLS4zNyAxMi41NjgtLjYxNyAyMS4xOTcgMS44NiAyNy45MzcgMi40NzkgNi43NCA0Ljk0OCAyMS45MDUgMjYuMDQgMTcuMzg2IDE3LjYyMy0zLjc3NyAyNi43NTYtMTMuNTY0IDI4LjAyNy0yOS44OS45MDEtMTEuNjA2IDIuOTQyLTkuODkgMy4wNy0yMC4yNjdsMS42MzctNC45MTJjMS44ODctMTUuNzMzLjMtMjAuODA5IDExLjE1Ny0xOC40NDhsMi42NC4yMzJjNy45OS4zNjMgMTguNDUtMS4yODYgMjQuNTg5LTQuMTM5IDEzLjIxOC02LjEzNCAyMS4wNTgtMTYuMzc3IDguMDI0LTEzLjY4NmguMDAyIi8+PHBhdGggZmlsbD0iI0ZGRiIgZD0iTTEwOC4wNzYgODEuNTI1Yy0yLjY4LS4zNzMtNS4xMDctLjAyOC02LjMzNS45MDItLjY5LjUyMy0uOTA0IDEuMTI5LS45NjIgMS41NDYtLjE1NCAxLjEwNS42MiAyLjMyNyAxLjA5NiAyLjk1NyAxLjM0NiAxLjc4NCAzLjMxMiAzLjAxIDUuMjU4IDMuMjguMjgyLjA0LjU2My4wNTguODQyLjA1OCAzLjI0NSAwIDYuMTk2LTIuNTI3IDYuNDU2LTQuMzkyLjMyNS0yLjMzNi0zLjA2Ni0zLjg5My02LjM1NS00LjM1TTE5Ni44NiA4MS41OTljLS4yNTYtMS44MzEtMy41MTQtMi4zNTMtNi42MDYtMS45MjMtMy4wODguNDMtNi4wODIgMS44MjQtNS44MzIgMy42NTkuMiAxLjQyNyAyLjc3NyAzLjg2MyA1LjgyNyAzLjg2My4yNTggMCAuNTE4LS4wMTcuNzgtLjA1NCAyLjAzNi0uMjgyIDMuNTMtMS41NzUgNC4yNC0yLjMyIDEuMDgtMS4xMzYgMS43MDYtMi40MDIgMS41OTEtMy4yMjUiLz48cGF0aCBmaWxsPSIjRkZGIiBkPSJNMjQ3LjgwMiAxNjAuMDI1Yy0xLjEzNC0zLjQyOS00Ljc4NC00LjUzMi0xMC44NDgtMy4yOC0xOC4wMDUgMy43MTYtMjQuNDUzIDEuMTQyLTI2LjU3LS40MTcgMTMuOTk1LTIxLjMyIDI1LjUwOC00Ny4wOTIgMzEuNzE5LTcxLjEzNyAyLjk0Mi0xMS4zOSA0LjU2Ny0yMS45NjggNC43LTMwLjU5LjE0Ny05LjQ2My0xLjQ2NS0xNi40MTctNC43ODktMjAuNjY1LTEzLjQwMi0xNy4xMjUtMzMuMDcyLTI2LjMxMS01Ni44ODItMjYuNTYzLTE2LjM2OS0uMTg0LTMwLjE5OSA0LjAwNS0zMi44OCA1LjE4My01LjY0Ni0xLjQwNC0xMS44MDEtMi4yNjYtMTguNTAyLTIuMzc2LTEyLjI4OC0uMTk5LTIyLjkxIDIuNzQzLTMxLjcwNCA4Ljc0LTMuODItMS40MjItMTMuNjkyLTQuODExLTI1Ljc2NS02Ljc1Ni0yMC44NzItMy4zNi0zNy40NTgtLjgxNC00OS4yOTQgNy41NzEtMTQuMTIzIDEwLjAwNi0yMC42NDMgMjcuODkyLTE5LjM4IDUzLjE2LjQyNSA4LjUwMSA1LjI2OSAzNC42NTMgMTIuOTEzIDU5LjY5OCAxMC4wNjIgMzIuOTY0IDIxIDUxLjYyNSAzMi41MDggNTUuNDY0IDEuMzQ3LjQ0OSAyLjkuNzYzIDQuNjEzLjc2MyA0LjE5OCAwIDkuMzQ1LTEuODkyIDE0LjctOC4zM2E1MjkuODMyIDUyOS44MzIgMCAwIDEgMjAuMjYxLTIyLjkyNmM0LjUyNCAyLjQyOCA5LjQ5NCAzLjc4NCAxNC41NzcgMy45Mi4wMS4xMzMuMDIzLjI2Ni4wMzUuMzk4YTExNy42NiAxMTcuNjYgMCAwIDAtMi41NyAzLjE3NWMtMy41MjIgNC40NzEtNC4yNTUgNS40MDItMTUuNTkyIDcuNzM2LTMuMjI1LjY2Ni0xMS43OSAyLjQzMS0xMS45MTYgOC40MzUtLjEzNiA2LjU2IDEwLjEyNSA5LjMxNSAxMS4yOTQgOS42MDcgNC4wNzQgMS4wMiA3Ljk5OSAxLjUyMyAxMS43NDIgMS41MjMgOS4xMDMgMCAxNy4xMTQtMi45OTIgMjMuNTE2LTguNzgxLS4xOTcgMjMuMzg2Ljc3OCA0Ni40MyAzLjU4NiA1My40NTEgMi4zIDUuNzQ4IDcuOTE4IDE5Ljc5NSAyNS42NjQgMTkuNzk0IDIuNjA0IDAgNS40Ny0uMzAzIDguNjIzLS45NzkgMTguNTIxLTMuOTcgMjYuNTY0LTEyLjE1NiAyOS42NzUtMzAuMjAzIDEuNjY1LTkuNjQ1IDQuNTIyLTMyLjY3NiA1Ljg2Ni00NS4wMyAyLjgzNi44ODUgNi40ODcgMS4yOSAxMC40MzQgMS4yODkgOC4yMzIgMCAxNy43MzEtMS43NDkgMjMuNjg4LTQuNTE0IDYuNjkyLTMuMTA4IDE4Ljc2OC0xMC43MzQgMTYuNTc4LTE3LjM2em0tNDQuMTA2LTgzLjQ4Yy0uMDYxIDMuNjQ3LS41NjMgNi45NTgtMS4wOTUgMTAuNDE0LS41NzMgMy43MTctMS4xNjUgNy41Ni0xLjMxNCAxMi4yMjUtLjE0NyA0LjU0LjQyIDkuMjYuOTY4IDEzLjgyNSAxLjEwOCA5LjIyIDIuMjQ1IDE4LjcxMi0yLjE1NiAyOC4wNzhhMzYuNTA4IDM2LjUwOCAwIDAgMS0xLjk1LTQuMDA5Yy0uNTQ3LTEuMzI2LTEuNzM1LTMuNDU2LTMuMzgtNi40MDQtNi4zOTktMTEuNDc2LTIxLjM4NC0zOC4zNS0xMy43MTMtNDkuMzE2IDIuMjg1LTMuMjY0IDguMDg0LTYuNjIgMjIuNjQtNC44MTN6bS0xNy42NDQtNjEuNzg3YzIxLjMzNC40NzEgMzguMjEgOC40NTIgNTAuMTU4IDIzLjcyIDkuMTY0IDExLjcxMS0uOTI3IDY0Ljk5OC0zMC4xNCAxMTAuOTY5YTE3MS4zMyAxNzEuMzMgMCAwIDAtLjg4Ni0xLjExN2wtLjM3LS40NjJjNy41NDktMTIuNDY3IDYuMDczLTI0LjgwMiA0Ljc1OS0zNS43MzgtLjU0LTQuNDg4LTEuMDUtOC43MjctLjkyLTEyLjcwOS4xMzQtNC4yMi42OTItNy44NCAxLjIzMi0xMS4zNC42NjMtNC4zMTMgMS4zMzgtOC43NzYgMS4xNTItMTQuMDM3LjEzOS0uNTUyLjE5NS0xLjIwNC4xMjItMS45NzgtLjQ3NS01LjA0NS02LjIzNS0yMC4xNDQtMTcuOTc1LTMzLjgxLTYuNDIyLTcuNDc1LTE1Ljc4Ny0xNS44NC0yOC41NzQtMjEuNDgyIDUuNS0xLjE0IDEzLjAyMS0yLjIwMyAyMS40NDItMi4wMTZ6TTY2LjY3NCAxNzUuNzc4Yy01LjkgNy4wOTQtOS45NzQgNS43MzQtMTEuMzE0IDUuMjg4LTguNzMtMi45MTItMTguODYtMjEuMzY0LTI3Ljc5MS01MC42MjQtNy43MjgtMjUuMzE4LTEyLjI0NC01MC43NzctMTIuNjAyLTU3LjkxNi0xLjEyOC0yMi41NzggNC4zNDUtMzguMzEzIDE2LjI2OC00Ni43NjkgMTkuNDA0LTEzLjc2IDUxLjMwNi01LjUyNCA2NC4xMjUtMS4zNDctLjE4NC4xODItLjM3Ni4zNTItLjU1OC41MzctMjEuMDM2IDIxLjI0NC0yMC41MzcgNTcuNTQtMjAuNDg1IDU5Ljc1OS0uMDAyLjg1Ni4wNyAyLjA2OC4xNjggMy43MzUuMzYyIDYuMTA1IDEuMDM2IDE3LjQ2Ny0uNzY0IDMwLjMzNC0xLjY3MiAxMS45NTcgMi4wMTQgMjMuNjYgMTAuMTExIDMyLjEwOWEzNi4yNzUgMzYuMjc1IDAgMCAwIDIuNjE3IDIuNDY4Yy0zLjYwNCAzLjg2LTExLjQzNyAxMi4zOTYtMTkuNzc1IDIyLjQyNnptMjIuNDc5LTI5Ljk5M2MtNi41MjYtNi44MS05LjQ5LTE2LjI4Mi04LjEzMy0yNS45OSAxLjktMTMuNTkyIDEuMTk5LTI1LjQzLjgyMi0zMS43OS0uMDUzLS44OS0uMS0xLjY3LS4xMjctMi4yODUgMy4wNzMtMi43MjUgMTcuMzE0LTEwLjM1NSAyNy40Ny04LjAyOCA0LjYzNCAxLjA2MSA3LjQ1OCA0LjIxNyA4LjYzMiA5LjY0NSA2LjA3NiAyOC4xMDMuODA0IDM5LjgxNi0zLjQzMiA0OS4yMjktLjg3MyAxLjkzOS0xLjY5OCAzLjc3Mi0yLjQwMiA1LjY2OGwtLjU0NiAxLjQ2NmMtMS4zODIgMy43MDYtMi42NjggNy4xNTItMy40NjUgMTAuNDI0LTYuOTM4LS4wMi0xMy42ODctMi45ODQtMTguODE5LTguMzR6bTEuMDY1IDM3LjljLTIuMDI2LS41MDYtMy44NDgtMS4zODUtNC45MTctMi4xMTQuODkzLS40MiAyLjQ4Mi0uOTkyIDUuMjM4LTEuNTYgMTMuMzM3LTIuNzQ1IDE1LjM5Ny00LjY4MyAxOS44OTUtMTAuMzk0IDEuMDMxLTEuMzEgMi4yLTIuNzk0IDMuODE5LTQuNjAybC4wMDItLjAwMmMyLjQxMS0yLjcgMy41MTQtMi4yNDIgNS41MTQtMS40MTIgMS42MjEuNjcgMy4yIDIuNzAyIDMuODQgNC45MzguMzAzIDEuMDU2LjY0MyAzLjA2LS40NyA0LjYyLTkuMzk2IDEzLjE1Ni0yMy4wODggMTIuOTg3LTMyLjkyMSAxMC41MjZ6bTY5Ljc5OSA2NC45NTJjLTE2LjMxNiAzLjQ5Ni0yMi4wOTMtNC44MjktMjUuOS0xNC4zNDYtMi40NTctNi4xNDQtMy42NjUtMzMuODUtMi44MDgtNjQuNDQ3LjAxMS0uNDA3LS4wNDctLjgtLjE1OS0xLjE3YTE1LjQ0NCAxNS40NDQgMCAwIDAtLjQ1Ni0yLjE2MmMtMS4yNzQtNC40NTItNC4zNzktOC4xNzYtOC4xMDQtOS43Mi0xLjQ4LS42MTMtNC4xOTYtMS43MzgtNy40Ni0uOTAzLjY5Ni0yLjg2OCAxLjkwMy02LjEwNyAzLjIxMi05LjYxNGwuNTQ5LTEuNDc1Yy42MTgtMS42NjMgMS4zOTQtMy4zODYgMi4yMTQtNS4yMSA0LjQzMy05Ljg0OCAxMC41MDQtMjMuMzM3IDMuOTE1LTUzLjgxLTIuNDY4LTExLjQxNC0xMC43MS0xNi45ODgtMjMuMjA0LTE1LjY5My03LjQ5Ljc3NS0xNC4zNDMgMy43OTctMTcuNzYxIDUuNTMtLjczNS4zNzItMS40MDcuNzMyLTIuMDM1IDEuMDgyLjk1NC0xMS41IDQuNTU4LTMyLjk5MiAxOC4wNC00Ni41OSA4LjQ4OS04LjU2IDE5Ljc5NC0xMi43ODggMzMuNTY4LTEyLjU2IDI3LjE0LjQ0NCA0NC41NDQgMTQuMzcyIDU0LjM2NiAyNS45NzkgOC40NjQgMTAuMDAxIDEzLjA0NyAyMC4wNzYgMTQuODc2IDI1LjUxLTEzLjc1NS0xLjM5OS0yMy4xMSAxLjMxNi0yNy44NTIgOC4wOTYtMTAuMzE3IDE0Ljc0OCA1LjY0NCA0My4zNzIgMTMuMzE1IDU3LjEyOSAxLjQwNyAyLjUyMSAyLjYyMSA0LjcgMy4wMDMgNS42MjYgMi40OTggNi4wNTQgNS43MzIgMTAuMDk2IDguMDkzIDEzLjA0Ni43MjQuOTA0IDEuNDI2IDEuNzgxIDEuOTYgMi41NDctNC4xNjYgMS4yMDEtMTEuNjQ5IDMuOTc2LTEwLjk2NyAxNy44NDctLjU1IDYuOTYtNC40NjEgMzkuNTQ2LTYuNDQ4IDUxLjA1OS0yLjYyMyAxNS4yMS04LjIyIDIwLjg3NS0yMy45NTcgMjQuMjV6bTY4LjEwNC03Ny45MzZjLTQuMjYgMS45NzctMTEuMzg5IDMuNDYtMTguMTYxIDMuNzc5LTcuNDguMzUtMTEuMjg4LS44MzgtMTIuMTg0LTEuNTY5LS40Mi04LjY0NCAyLjc5Ny05LjU0NyA2LjIwMi0xMC41MDMuNTM1LS4xNSAxLjA1Ny0uMjk3IDEuNTYxLS40NzMuMzEzLjI1NS42NTYuNTA4IDEuMDMyLjc1NiA2LjAxMiAzLjk2OCAxNi43MzUgNC4zOTYgMzEuODc0IDEuMjcxbC4xNjYtLjAzM2MtMi4wNDIgMS45MDktNS41MzYgNC40NzEtMTAuNDkgNi43NzJ6Ii8+PC9zdmc+;" vertex="1" parent="1">
          <mxGeometry x="205.76" y="585" width="48.49" height="50" as="geometry" />
        </mxCell>
        <mxCell id="T6b7CAbE1X9xuzdlVGs--4" value="" style="shape=image;verticalLabelPosition=bottom;labelBackgroundColor=default;verticalAlign=top;aspect=fixed;imageAspect=0;editableCssRules=.*;image=data:image/svg+xml,PHN2ZyB4bWxuczp4bGluaz0iaHR0cDovL3d3dy53My5vcmcvMTk5OS94bGluayIgeG1sbnM9Imh0dHA6Ly93d3cudzMub3JnLzIwMDAvc3ZnIiB4bWw6c3BhY2U9InByZXNlcnZlIiB2aWV3Qm94PSIwIDAgNTEyIDQ3MS40NTgwMDc4MTI1IiBpZD0iX3gzNF8iIHZlcnNpb249IjEuMSIgd2lkdGg9IjUxMiIgaGVpZ2h0PSI0NzEuNDU4MDA3ODEyNSI+JiN4YTs8Zz4mI3hhOwk8cG9seWdvbiBwb2ludHM9IjUxMS40MDIsMTczLjY1NyA1MDYuNTMsMTc2LjczNCA1MDIuNTEzLDE3OS4yMTIgNDY3LjgxNiwyMDEuMDkxIDQ1OC4yNDQsMjA3LjA3MyAmIzEwOyYjOTsmIzk7MzQxLjMzMywyODAuMzk5IDMzNC45MjMsMjg0LjQxNiAzMDAuOTEsMzA1Ljc4MSAyOTkuMTE1LDMwNi44OTEgMjk3LjIzNSwzMDguMDg5IDI5NC41LDMwOS43OTggMjY4LjYwNSwzMjYuMDM1IDI2Ni4yMTMsMzI3LjY1OSAmIzEwOyYjOTsmIzk7MjY1Ljk1NiwzMjcuNzQ1IDI2NS43LDMyNy45MTYgMjU2LjA0MywzMzMuOTgzIDI1NS43MDEsMzM0LjE1NCAyNDcuNzUzLDMyOS4xOTggMjQ2LjMsMzI4LjI1NyAyNDYuMDQ0LDMyOC4wODYgMjM1LjAxOSwzMjEuMTY0ICYjMTA7JiM5OyYjOTsyMTYuOTAxLDMwOS43OTggMjE0Ljg1LDMwOC41MTYgMjEwLjQ5MiwzMDUuNzgxIDE3Ni40NzgsMjg0LjQxNiAxNzAuMDY4LDI4MC4zOTkgNjYuNjYsMjE1LjQ0OCA1NC40MzksMjA3Ljg0MiA0NC42OTYsMjAxLjY4OSAmIzEwOyYjOTsmIzk7MC41OTgsMTczLjk5OSAwLDE3My42NTcgMC41OTgsMTczLjMxNiAxLjAyNiwxNzMuMDU5IDQ0LjY5NiwxNDUuNjI3IDU0LjQzOSwxMzkuNDczIDExNi42NTUsMTAwLjQxNyAxMjIuOTc5LDk2LjQwMSAmIzEwOyYjOTsmIzk7MTU2Ljk5Myw3NS4wMzUgMTYzLjMxNyw3MS4xMDQgMjQ5LjU0OCwxNi45MjEgMjYxLjg1NCwxNi45MjEgMzQwLjA1MSw2Ni4wNjIgNDAxLjMyNywxMDQuNTE5IDQ1OC4yNDQsMTQwLjI0MiA0NjQuNzQsMTQ0LjM0NCAmIzEwOyYjOTsmIzk7NDY3LjgxNiwxNDYuMzEgNDkwLjAzNiwxNjAuMjQgNTEwLjk3NCwxNzMuNDAyIiBzdHlsZT0iZmlsbDojQzRDNEM0OyIvPiYjeGE7CTxwYXRoIGQ9Ik00NjcuODE2LDE2LjA2NnYzODMuODA5YzAsMC4yNTYsMCwwLjU5OC0wLjA4NiwwLjg1M2MtMC4xNzEsNC4wMTctMi4wNTEsNy41MjItNC44NzEsMTAuMjU2JiMxMDsmIzk7JiM5O2MtMy4yNDcsMi45OTEtNy42OTIsNC44NzEtMTIuNjQ5LDQuODcxSDYyLjMwMmMtNC45NTcsMC05LjQwMS0xLjg4LTEyLjY0OS00Ljg3MWMtMy4wNzYtMi45MDUtNC45NTctNi43NTEtNC45NTctMTEuMTA5VjE2LjA2NiYjMTA7JiM5OyYjOTtDNDQuNjk2LDcuMTc4LDUyLjY0NSwwLDYyLjMwMiwwaDM4Ny45MDlDNDU5Ljk1NCwwLDQ2Ny44MTYsNy4xNzgsNDY3LjgxNiwxNi4wNjZ6IiBzdHlsZT0iZmlsbDojNUVCMkIyOyIvPiYjeGE7CTxnPiYjeGE7CQk8Zz4mI3hhOwkJCTxyZWN0IGhlaWdodD0iMjUuMzc4IiB3aWR0aD0iMTkwLjUwOCIgc3R5bGU9ImZpbGw6Izg2Q0NDQTsiIHk9Ijc1LjA3MSIgeD0iMTEwLjc1OSIvPiYjeGE7CQkJPHJlY3QgaGVpZ2h0PSIyNS4zNzgiIHdpZHRoPSIxOTAuNTA4IiBzdHlsZT0iZmlsbDojNTJBNkEzOyIgeT0iNzEuMDY0IiB4PSIxMTAuNzU5Ii8+JiN4YTsJCTwvZz4mI3hhOwkJPGc+JiN4YTsJCQk8cmVjdCBoZWlnaHQ9IjI1LjM3OCIgd2lkdGg9IjI4OS41MDEiIHN0eWxlPSJmaWxsOiM4NkNDQ0E7IiB5PSIyMTQuNjUzIiB4PSIxMTAuNzU5Ii8+JiN4YTsJCQk8cmVjdCBoZWlnaHQ9IjI1LjM3OCIgd2lkdGg9IjI4OS41MDEiIHN0eWxlPSJmaWxsOiM1MkE2QTM7IiB5PSIyMTAuNjQ2IiB4PSIxMTAuNzU5Ii8+JiN4YTsJCTwvZz4mI3hhOwkJPGc+JiN4YTsJCQk8cmVjdCBoZWlnaHQ9IjI1LjM3OCIgd2lkdGg9IjI4OS41MDEiIHN0eWxlPSJmaWxsOiM4NkNDQ0E7IiB5PSIyODQuNDQ0IiB4PSIxMTAuNzU5Ii8+JiN4YTsJCQk8cmVjdCBoZWlnaHQ9IjI1LjM3OCIgd2lkdGg9IjI4OS41MDEiIHN0eWxlPSJmaWxsOiM1MkE2QTM7IiB5PSIyODAuNDM3IiB4PSIxMTAuNzU5Ii8+JiN4YTsJCTwvZz4mI3hhOwkJPGc+JiN4YTsJCQk8cmVjdCBoZWlnaHQ9IjI1LjM3OCIgd2lkdGg9IjI4OS41MDEiIHN0eWxlPSJmaWxsOiM4NkNDQ0E7IiB5PSIxNDQuODYyIiB4PSIxMTAuNzU5Ii8+JiN4YTsJCQk8cmVjdCBoZWlnaHQ9IjI1LjM3OCIgd2lkdGg9IjI4OS41MDEiIHN0eWxlPSJmaWxsOiM1MkE2QTM7IiB5PSIxNDAuODU1IiB4PSIxMTAuNzU5Ii8+JiN4YTsJCTwvZz4mI3hhOwk8L2c+JiN4YTsJPHBvbHlnb24gcG9pbnRzPSIyNTYuMjk5LDMyMi4xMDQgMjUzLjMwOCwzMjMuODEzIDI0Ni4wNDQsMzI4LjA4NiAxOTUuNDUsMzU3LjY1NiAxODguMzU3LDM2MS44NDQgJiMxMDsmIzk7JiM5OzEwOC40NTEsNDA4LjUwNiA5NS44MDIsNDE1Ljg1NSAxMi4zOTIsNDY0LjU2OSA1Ljk4Miw0NjguMjQ0IDAuNTk4LDQ3MS40MDUgMC41OTgsMTcyLjgwMyAxLjAyNiwxNzMuMDU5IDQ0LjY5NiwxOTguNTI3ICYjMTA7JiM5OyYjOTs3MS40NDYsMjE0LjE2NiAxMTAuNzU4LDIzNy4xNTYgMTE1LjgsMjQwLjA2MSAxODQuODUzLDI4MC4zOTkgMTkxLjc3NiwyODQuNDE2IDIyMy42NTIsMzAzLjA0NiAyMjguMzUzLDMwNS43ODEgMjM1LjE5LDMwOS43OTggJiMxMDsmIzk7JiM5OzI0NC4wNzgsMzE0LjkyNSAyNDYuNjQyLDMxNi40NjQgMjQ4LjAwOSwzMTcuMjMzIDI1Ni4wNDMsMzIxLjkzMyIgc3R5bGU9ImZpbGw6I0ZGRkZGRjsiLz4mI3hhOwk8cG9seWdvbiBwb2ludHM9IjUxMS45NzIsMTcyLjc5NSA1MTEuOTcyLDQ3MS40NTggNTExLjg4Nyw0NzEuMzg0IDUxMS40NTksNDcxLjA5IDUxMS4xMTcsNDcwLjg3ICYjMTA7JiM5OyYjOTs1MTEuMDMxLDQ3MC44NyAyNjMuNzA2LDMyNi40OTYgMjU5LjM0OCwzMjMuOTI1IDI1Ni4yNzEsMzIyLjA4OSAyNjYuMDE0LDMxNi40MzUgMjY2LjI3MSwzMTYuMjg4IDI2Ni41MjcsMzE2LjE0MSAyNzUuNSwzMTAuOTI3IiBzdHlsZT0iZmlsbDojRTNFMkUyOyIvPiYjeGE7CTxjaXJjbGUgcj0iMzguMTg2IiBjeT0iNzUuMDcxIiBjeD0iMzc3LjExNCIgc3R5bGU9Im9wYWNpdHk6MC42ODtmaWxsOiNFRUYzQ0E7Ii8+JiN4YTsJPHBhdGggZD0iTTUxMS45NzIsNDI1LjIyMnY0NS44MDhoLTAuNTEzbC03LjM1LDAuMzQySDI3LjY2MmwtMC4zNDEtNy4wOTQmIzEwOyYjOTsmIzk7YzguNjMyLTUuODk2LDIwLjA4Mi0xMy44NDUsMjcuNTE4LTE4Ljg4N2wxLjAyNC0wLjY4NGwyNC45NTYtMTcuMTc4bDM4Ljk3LTI2LjkybDExLjI4MS03Ljc3N2wxMTguMzY1LTgxLjYxNWw3Ljk0Ny01LjU1NiYjMTA7JiM5OyYjOTtjMS44OC0xLjE5NSw0LjAxNi0yLjIyMiw2LjMyNC0yLjkwNGMyLjczNS0wLjk0MSw1LjcyNi0xLjUzOSw4LjcxNy0xLjc5NWMxLjAyNi0wLjA4NiwxLjk2NS0wLjE3MSwyLjk5MS0wLjA4NiYjMTA7JiM5OyYjOTtjMS4wMjUtMC4xNzEsMi4wNTItMC4xNzEsMy4wNzctMC4xNzFjMi43MzUtMC4wODUsNS4zODUsMC4xNzEsNy45NDgsMC42ODNjMi43MzQsMC41MTMsNS4yMTMsMS4zNjksNy40MzUsMi41NjRsODkuNzM1LDQ5LjkxJiMxMDsmIzk7JiM5O2w0NC4zNTQsMjQuNjk3bDExLjUzOCw2LjQxbDQxLjc5LDIzLjI0NWwyNy41MTgsMTUuMjk4YzAuNzcsMC40MjgsMS42MjQsMC44NTUsMi40NzksMS4zNjgmIzEwOyYjOTsmIzk7QzUxMS40NTksNDI0Ljk2Niw1MTEuNzE2LDQyNS4xMzcsNTExLjk3Miw0MjUuMjIyeiIgc3R5bGU9ImZpbGw6Izc1NzU3NTsiLz4mI3hhOwk8cGF0aCBkPSJNNTEyLDQ0MS40MDh2MjkuOTk3SDAuNTk4di0yOS45OTdjOC45NzMtNS40NjksMjAuNzY3LTEyLjkwNSwyOC40NTktMTcuNTE5bDEuMDI1LTAuNjgzJiMxMDsmIzk7JiM5O2wxOS41Ny0xMi4yMjFsNi4xNTMtMy43NjFsNDAuMjUyLTI0Ljk1NGwxMS42MjMtNy4yNjVsMTA1LjAzMi02NS4yMDZsMi4xMzctMS4yODJsNC4zNTktMi43MzRsNC40NDQtMi43MzVsNi4xNTQtMy44NDUmIzEwOyYjOTsmIzk7bDguMjA0LTUuMTI5YzQuMjczLTIuNTYzLDkuODI4LTMuODQ1LDE1LjI5Ny0zLjkzMWMxLjAyNS0wLjA4NiwxLjk2NS0wLjA4NiwyLjk5MSwwYzEuMDI2LTAuMDg2LDIuMDUxLTAuMDg2LDMuMDc3LDAmIzEwOyYjOTsmIzk7YzIuMzkzLDAsNC43LDAuMjU3LDYuOTIyLDAuNzdjMy4wNzcsMC41OTgsNS44OTcsMS43MDksOC4yOSwzLjE2MWwxMS44NzksNy4zNTFsMi41NjQsMS42MjNsNC40NDQsMi43MzVsMy43NiwyLjMwOGwyLjczNSwxLjcwOSYjMTA7JiM5OyYjOTtsNjEuODc0LDM4LjQ1OGw0My4wNzIsMjYuNzQ5bDExLjE5NSw3LjAwOGw0MC42OCwyNS4yMTFsNi4wNjgsMy43NjFsMjAuNjgyLDEyLjkwNWMwLjc2OSwwLjQyNywxLjUzOCwwLjg1NCwyLjM5MywxLjM2OCYjMTA7JiM5OyYjOTtjNS40NywzLjUwMywxMi40NzgsNy44NjIsMTkuMDU4LDExLjg3OEM1MDcuMzg1LDQzOC42NzMsNTA5Ljc3OCw0NDAuMTI3LDUxMiw0NDEuNDA4eiIgc3R5bGU9ImZpbGw6I0VBRUFFQTsiLz4mI3hhOwk8cGF0aCBkPSJNNDY3LjgxNiwxNi4wNjZ2NC4yNzNjMC04Ljg4Ny03Ljg2Mi0xNi4wNjYtMTcuNjA1LTE2LjA2Nkg2Mi4zMDImIzEwOyYjOTsmIzk7Yy05LjY1NywwLTE3LjYwNSw3LjE3OC0xNy42MDUsMTYuMDY2di00LjI3M0M0NC42OTYsNy4xNzgsNTIuNjQ1LDAsNjIuMzAyLDBoMzg3LjkwOUM0NTkuOTU0LDAsNDY3LjgxNiw3LjE3OCw0NjcuODE2LDE2LjA2NnoiIHN0eWxlPSJvcGFjaXR5OjAuMjtmaWxsOiNBQkRCREY7Ii8+JiN4YTs8L2c+JiN4YTs8L3N2Zz4=;" vertex="1" parent="1">
          <mxGeometry x="594.61" y="590" width="40.77" height="37.5" as="geometry" />
        </mxCell>
        <mxCell id="T6b7CAbE1X9xuzdlVGs--8" value="" style="shape=image;verticalLabelPosition=bottom;labelBackgroundColor=default;verticalAlign=top;aspect=fixed;imageAspect=0;editableCssRules=.*;image=data:image/svg+xml,PHN2ZyB4bWxuczp4bGluaz0iaHR0cDovL3d3dy53My5vcmcvMTk5OS94bGluayIgeG1sbnM9Imh0dHA6Ly93d3cudzMub3JnLzIwMDAvc3ZnIiB2ZXJzaW9uPSIxLjEiIHZpZXdCb3g9IjYzLjUgNjMuNSAzODUgMzg1IiBoZWlnaHQ9IjYwMS41NjI1IiB3aWR0aD0iNjAxLjU2MjUiPiYjeGE7ICAgIDx0aXRsZT5haTwvdGl0bGU+JiN4YTsgICAgPGcgZmlsbC1ydWxlPSJldmVub2RkIiBmaWxsPSJub25lIiBzdHJva2Utd2lkdGg9IjEiIHN0cm9rZT0ibm9uZSIgaWQ9IlBhZ2UtMSI+JiN4YTsgICAgICAgIDxnIHRyYW5zZm9ybT0idHJhbnNsYXRlKDY0LjAwMDAwMCwgNjQuMDAwMDAwKSIgZmlsbD0iIzAwMDAwMCIgaWQ9Imljb24iPiYjeGE7ICAgICAgICAgICAgPHBhdGggaWQ9IkNvbWJpbmVkLVNoYXBlIiBkPSJNMzIwLDY0IEwzMjAsMzIwIEw2NCwzMjAgTDY0LDY0IEwzMjAsNjQgWiBNMTcxLjc0OTM4OCwxMjggTDE0Ni44MTc4NDIsMTI4IEw5OS40ODQwMzg3LDI1NiBMMTIxLjk3NjYyOSwyNTYgTDEzMC45MTMwMzksMjMwLjk3NyBMMTg3LjU3NTAzOSwyMzAuOTc3IEwxOTYuMzE5NjA3LDI1NiBMMjIwLjE2NzE3MiwyNTYgTDE3MS43NDkzODgsMTI4IFogTTI2MC4wOTM3NzgsMTI4IEwyMzcuNjkxNTE5LDEyOCBMMjM3LjY5MTUxOSwyNTYgTDI2MC4wOTM3NzgsMjU2IEwyNjAuMDkzNzc4LDEyOCBaIE0xNTkuMDk0NzI3LDE0OS40NzUyNiBMMTgxLjQwOTAzOSwyMTMuMzMzIEwxMzcuMTM1MDM5LDIxMy4zMzMgTDE1OS4wOTQ3MjcsMTQ5LjQ3NTI2IFogTTM0MS4zMzMzMzMsMjU2IEwzODQsMjU2IEwzODQsMjk4LjY2NjY2NyBMMzQxLjMzMzMzMywyOTguNjY2NjY3IEwzNDEuMzMzMzMzLDI1NiBaIE04NS4zMzMzMzMzLDM0MS4zMzMzMzMgTDEyOCwzNDEuMzMzMzMzIEwxMjgsMzg0IEw4NS4zMzMzMzMzLDM4NCBMODUuMzMzMzMzMywzNDEuMzMzMzMzIFogTTE3MC42NjY2NjcsMzQxLjMzMzMzMyBMMjEzLjMzMzMzMywzNDEuMzMzMzMzIEwyMTMuMzMzMzMzLDM4NCBMMTcwLjY2NjY2NywzODQgTDE3MC42NjY2NjcsMzQxLjMzMzMzMyBaIE04NS4zMzMzMzMzLDAgTDEyOCwwIEwxMjgsNDIuNjY2NjY2NyBMODUuMzMzMzMzMyw0Mi42NjY2NjY3IEw4NS4zMzMzMzMzLDAgWiBNMjU2LDM0MS4zMzMzMzMgTDI5OC42NjY2NjcsMzQxLjMzMzMzMyBMMjk4LjY2NjY2NywzODQgTDI1NiwzODQgTDI1NiwzNDEuMzMzMzMzIFogTTE3MC42NjY2NjcsMCBMMjEzLjMzMzMzMywwIEwyMTMuMzMzMzMzLDQyLjY2NjY2NjcgTDE3MC42NjY2NjcsNDIuNjY2NjY2NyBMMTcwLjY2NjY2NywwIFogTTI1NiwwIEwyOTguNjY2NjY3LDAgTDI5OC42NjY2NjcsNDIuNjY2NjY2NyBMMjU2LDQyLjY2NjY2NjcgTDI1NiwwIFogTTM0MS4zMzMzMzMsMTcwLjY2NjY2NyBMMzg0LDE3MC42NjY2NjcgTDM4NCwyMTMuMzMzMzMzIEwzNDEuMzMzMzMzLDIxMy4zMzMzMzMgTDM0MS4zMzMzMzMsMTcwLjY2NjY2NyBaIE0wLDI1NiBMNDIuNjY2NjY2NywyNTYgTDQyLjY2NjY2NjcsMjk4LjY2NjY2NyBMMCwyOTguNjY2NjY3IEwwLDI1NiBaIE0zNDEuMzMzMzMzLDg1LjMzMzMzMzMgTDM4NCw4NS4zMzMzMzMzIEwzODQsMTI4IEwzNDEuMzMzMzMzLDEyOCBMMzQxLjMzMzMzMyw4NS4zMzMzMzMzIFogTTAsMTcwLjY2NjY2NyBMNDIuNjY2NjY2NywxNzAuNjY2NjY3IEw0Mi42NjY2NjY3LDIxMy4zMzMzMzMgTDAsMjEzLjMzMzMzMyBMMCwxNzAuNjY2NjY3IFogTTAsODUuMzMzMzMzMyBMNDIuNjY2NjY2Nyw4NS4zMzMzMzMzIEw0Mi42NjY2NjY3LDEyOCBMMCwxMjggTDAsODUuMzMzMzMzMyBaIj4mI3hhOyYjeGE7PC9wYXRoPiYjeGE7ICAgICAgICA8L2c+JiN4YTsgICAgPC9nPiYjeGE7PC9zdmc+;" vertex="1" parent="1">
          <mxGeometry x="795" y="583.75" width="50" height="50" as="geometry" />
        </mxCell>
        <mxCell id="T6b7CAbE1X9xuzdlVGs--9" value="" style="shape=image;verticalLabelPosition=bottom;labelBackgroundColor=default;verticalAlign=top;aspect=fixed;imageAspect=0;editableCssRules=.*;image=data:image/svg+xml,PHN2ZyB4bWxuczp4bGluaz0iaHR0cDovL3d3dy53My5vcmcvMTk5OS94bGluayIgeG1sbnM9Imh0dHA6Ly93d3cudzMub3JnLzIwMDAvc3ZnIiBwcmVzZXJ2ZUFzcGVjdFJhdGlvPSJ4TWlkWU1pZCIgdmVyc2lvbj0iMS4xIiB2aWV3Qm94PSIwIDAgMjU2IDI1NC45OTYwNDc5NzM2MzI4IiBoZWlnaHQ9Ijc5Ni44NjI2NDk5MTc2MDI1IiB3aWR0aD0iODAwIj4mI3hhOyAgICA8Zz4mI3hhOyAgICAgICAgPHBhdGggZmlsbD0iI0UwMjM0RSIgZD0iTTE1MC43MzU3MzksMCBDMTQ4Ljg4NDYsMCAxNDcuMTY1Njg3LDAuMzk2Njg2MTE1IDE0NS41Nzg5OCwwLjkyNTU3MjI4OSBDMTQ4Ljk1MDY5MiwzLjE3MzM4NzY0IDE1MC44MDE4NDEsNi4xNDg0NjU0NyAxNTEuNzI3NDQxLDkuNTIwMTg4NDkgQzE1MS43OTM3MzgsOS45ODI5Njc5OCAxNTEuOTI1Nzc5LDEwLjMxMzU0NjQgMTUxLjk5MTk3NCwxMC43NzYzMTA1IEMxNTIuMDU4MjcxLDExLjE3Mjk5NjcgMTUyLjEyNDExOCwxMS41Njk2Njg1IDE1Mi4xMjQxMTgsMTEuOTY2MzUyNSBDMTUyLjM4ODY5MiwxNy43ODQyMjgzIDE1MC42MDM1MDMsMTguNTExNDYzMiAxNDkuMzQ3MzksMjEuOTQ5MzA5MiBDMTQ3LjQzMDExOCwyNi4zNzg4NTY4IDE0Ny45NTksMzEuMTM4OTQyOSAxNTAuMjcyOTQ5LDM0Ljk3MzQ3MiBDMTUwLjQ3MTI5NywzNS40MzYyMzkyIDE1MC43MzU3MzksMzUuOTY1MTM4NyAxNTEuMDY2MzIzLDM2LjQyNzkzMTUgQzE0OC41NTQwMTYsMTkuNzAxNDkxOSAxNjIuNTAzNzY5LDE3LjE4OTIyMDEgMTY1LjA4MjExOCwxMS45NjYzNTI1IEMxNjUuMjgwNDU2LDcuNDA0NTg3NTIgMTYxLjUxMjA2Niw0LjM2MzQxNjMxIDE1OC41MzcwMiwyLjI0NzgxNzM5IEMxNTUuNjk0MTksMC41Mjg5MDA0OTcgMTUzLjExNTc2OSwwIDE1MC43MzU3MzksMCBaIE0xNzEuNzU5NDgyLDMuNzY4NDA4MTEgQzE3MS40OTQ5MjgsNS4yODg5ODk2MyAxNzEuNjkzMjg3LDQuODkyMzE1NzkgMTcxLjYyNzM2OSw1LjY4NTY3MjY3IEMxNzEuNTYxMTc0LDYuMjE0NTU5ODcgMTcxLjU2MTE3NCw2Ljg3NTcwMDMzIDE3MS40OTUyNDUsNy40MDQ1ODc1MiBDMTcxLjM2MzEyMiw3LjkzMzQ4OTA0IDE3MS4yMzA2NzEsOC40NjIzNzYyNCAxNzEuMDMyNDM1LDguOTkxMzAxMjkgQzE3MC45MDAzMjIsOS41MjAxODg0OSAxNzAuNzAxODgxLDEwLjA0OTA4OSAxNzAuNTAzNTUzLDEwLjU3Nzk3NTIgQzE3MC4yMzg5NzksMTEuMTA2OTAxMiAxNzAuMDQwNzYzLDExLjU2OTY2ODUgMTY5Ljc3NjMxMiwxMi4wOTg1Njc5IEMxNjkuNTc3OTg0LDEyLjM2MzEyNjYgMTY5LjQ0NTc1OCwxMi42Mjc0NTUxIDE2OS4yNDc0MiwxMi44OTE5MjQ4IEMxNjkuMTE1Mjk2LDEzLjA5MDI2MDIgMTY4Ljk4Mjg2NiwxMy4yODg1OTY2IDE2OC44NTA3NTMsMTMuNDg2OTMyIEMxNjguNTIwMTk5LDEzLjk0OTczNzEgMTY4LjE4OTYxNSwxNC40MTI1MDQzIDE2Ny44NTkwNzEsMTQuODA5MTc1IEMxNjcuNDYyMzc0LDE1LjIwNTg2MTIgMTY3LjEzMTgyLDE1LjY2ODYyNzQgMTY2LjY2OTAwOSwxNS45OTkyMTcgQzE2Ni42NjkwMDksMTYuMDY1NDExNyAxNjYuNjY5MDA5LDE2LjA2NTQxMTcgMTY2LjY2OTAwOSwxNi4wNjU0MTE3IEMxNjYuMjcyMzQzLDE2LjM5NTk3NTggMTY1Ljg3NTY2NiwxNi43OTI2NDc2IDE2NS40MTI4OTcsMTcuMTIzMTk5NCBDMTY0LjAyNDUyNywxOC4xODA5ODYxIDE2Mi40Mzc4NTEsMTguOTc0MzQxOSAxNjAuOTgzMzU4LDE5Ljk2NjAzNDIgQzE2MC41MjA1OTksMjAuMjk2NTg2IDE2MC4wNTc3NzksMjAuNTYxMDU2NyAxNTkuNjYxMTIyLDIwLjk1NzcyNjUgQzE1OS4xOTgzNDMsMjEuMjg4Mjc4MyAxNTguODAxNjU2LDIxLjYxODgzMDEgMTU4LjQwNDk5OSwyMi4wMTU1MTQxIEMxNTcuOTQyMTg5LDIyLjQxMjE4NTkgMTU3LjYxMTYzNSwyMi44MDg4NyAxNTcuMjE0OTQ4LDIzLjI3MTY2MTggQzE1Ni44ODQzOTQsMjMuNjY4MzQ2OSAxNTYuNDg3NzI4LDI0LjEzMTExNjEgMTU2LjIyMzI4NywyNC41OTM5MjAyIEMxNTUuODkyNzAyLDI1LjA1NjY4NjQgMTU1LjU2MjE1OCwyNS41MTk0ODAyIDE1NS4yOTc2ODcsMjUuOTgyMjU4NyBDMTU1LjAzMzE0MywyNi41MTExNDQ4IDE1NC44MzQ5MDcsMjYuOTczOTQ5OSAxNTQuNTcwNDU2LDI3LjUwMjgzODEgQzE1NC4zNzIxMjgsMjguMDMxNzI0MyAxNTQuMTczNzY5LDI4LjQ5NDUzMTQgMTU0LjA0MTU2NCwyOS4wMjM0MTY2IEMxNTMuODQzMjI1LDI5LjYxODQzODEgMTUzLjcxMDk5OSwzMC4xNDczMzg2IDE1My41Nzg3NzQsMzAuNjc2MjUxMyBDMTUzLjUxMjU3OSwzMC45NDA4MDggMTUzLjUxMjU3OSwzMS4yNzEyNDYyIDE1My40NDY2NTEsMzEuNTM1NzAyNiBDMTUzLjM4MDM1NCwzMS44MDAyNjAzIDE1My4zODAzNTQsMzIuMDY0NTg5OCAxNTMuMzE0NTM3LDMyLjMyOTA1OTUgQzE1My4zMTQ1MzcsMzIuODU3OTQ1NyAxNTMuMjQ4MzQzLDMzLjQ1Mjk2NzIgMTUzLjI0ODM0MywzMy45ODE4NTQ0IEMxNTMuMjQ4MzQzLDM0LjM3ODUzODUgMTUzLjI0ODM0MywzNC43NzUyMDkyIDE1My4zMTQ1MzcsMzUuMTcxODk0MyBDMTUzLjMxNDUzNywzNS43MDA3ODI1IDE1My4zODA3MzIsMzYuMjI5NjcwOCAxNTMuNTEyODY2LDM2LjgyNDY5MDIgQzE1My41NzkwNiwzNy4zNTM1NzY0IDE1My43MTExODQsMzcuODgyNDc2OSAxNTMuODQzNDUsMzguNDExNDAzIEMxNTQuMDQxNzg5LDM4Ljk0MDI4OTEgMTU0LjE3NDAxNCwzOS40NjkxODk2IDE1NC4zNzIzMzIsMzkuOTk4MDc2OCBDMTU0LjUwNDQ3Niw0MC4zMjg2Njc1IDE1NC43MDI4ODYsNDAuNjU5MjE4MyAxNTQuODM1MTQyLDQwLjkyMzY0OTEgTDEzOS42MjkyNzYsMzUuMDM5NjQ5MiBDMTM3LjA1MDg3NiwzNC4zMTI0MTM0IDEzNC41Mzg2MywzMy42NTEzMTA4IDEzMS45NjAyMywzMy4wNTYyODkzIEMxMzAuNTcxODgyLDMyLjcyNTczODUgMTI5LjE4MzUzMywzMi4zOTUxNjMxIDEyNy43OTUxNjQsMzIuMDY0NTk4IEMxMjMuODI4NDA1LDMxLjI3MTI1NDQgMTE5Ljc5NTU4NCwzMC42NzYyNTg1IDExNS43NjI3MTMsMzAuMjc5NTg3NyBDMTE1LjYzMDYsMzAuMjc5NTg3NyAxMTUuNTY0Mzg0LDMwLjIxMzM4MjggMTE1LjQzMjE1OSwzMC4yMTMzODI4IEMxMTEuNDY1MzksMjkuODE2NzEyMSAxMDcuNTY0Nzg1LDI5LjYxODM3NTcgMTAzLjU5ODA0NiwyOS42MTgzNzU3IEMxMDAuNjg5MDgyLDI5LjYxODM3NTcgOTcuNzgwMTE4MiwyOS43NTA0ODk4IDk0LjkzNzI4NjUsMjkuOTQ4OTI3NSBDOTAuOTA0NDI3MSwzMC4yMTM0ODUyIDg2Ljg3MTU2MTYsMzAuNzQyMjgzMyA4Mi44Mzg3Mjk4LDMxLjQwMzM4NTkgQzgxLjg0NzAzNTUsMzEuNTM1NTEzNCA4MC44NTUzNDMyLDMxLjczMzk3NTYgNzkuODYzNjQ3OSwzMS45MzIzMTMgQzc3LjgxNDE3MiwzMi4zMjg5NTgyIDc1LjgzMDgxNjEsMzIuNzkxNzYzMyA3My45MTM1NTM2LDMzLjI1NDU1NTEgQzcyLjkyMTg2MTMsMzMuNTE5MTEyNyA3MS45MzAxNjcsMzMuNzgzNDU1NiA3MC45Mzg0NzM3LDM0LjA0Nzg4NzQgQzY5Ljk0NjgxMjIsMzQuNDQ0NTU3MSA2OS4wMjEyNDI5LDM0LjkwNzM2NDMgNjguMDk1NjQxLDM1LjMwNDAzNSBDNjcuMzY4NDA5MiwzNS42MzQ1ODY4IDY2LjY0MTE4MDUsMzUuOTY1MTQ5OSA2NS45MTM5NDc3LDM2LjI5NTcyNzMgQzY1Ljc4MTgyNTQsMzYuMzYxOTMyMiA2NS42NDkzOTQxLDM2LjM2MTkzMjIgNjUuNTgzMzkzOCwzNi40Mjc4NTQ3IEM2NC45MjIyNTU0LDM2Ljc1ODQwNTUgNjQuMzI3MjQsMzcuMDIyODM2MyA2My43MzIyNTQzLDM3LjM1MzQyNSBDNjMuNTMzOTE0OSwzNy40MTk2Mjk5IDYzLjQwMTY2NzcsMzcuNDg1NTQwMSA2My4yNjk0NTM0LDM3LjU1MTc2MjQgQzYyLjU0MjIyMjYsMzcuODgyMzE1MiA2MS44MTQ5OTM5LDM4LjI3ODk4NiA2MS4yMTk5NzU0LDM4LjYwOTU0OTEgQzYwLjc1NzE3NTUsMzguODA3ODg1NSA2MC4yOTQ0MDYyLDM5LjA3MjM0MTkgNTkuODk3NzMwMywzOS4yNzA2OTA1IEM1OS42OTkzODk4LDM5LjQwMjgwNDcgNTkuNDM0OTI3MywzOS41MzUyMzU5IDU5LjMwMjcxMjksMzkuNjAxMjQyNCBDNTguNzA3Njk4NiwzOS45MzE3OTQyIDU4LjExMjY4MjIsNDAuMjYyMzQzOSA1Ny41ODM3ODg5LDQwLjU5MjkzNDYgQzU2Ljk4ODc3MjUsNDAuOTIzNDg1NCA1Ni40NTk4NzkyLDQxLjI1NDAzNzIgNTUuOTk3MDc5Miw0MS41ODQ1ODkgQzU1LjUzNDMxMiw0MS45MTUxNzg3IDU1LjA3MTUxMyw0Mi4xNzk2MDk1IDU0LjY3NDgzMzEsNDIuNTEwMTYwMyBDNTQuNjA4NTk3NSw0Mi41NzYzNjUyIDU0LjU0MjcxMDgsNDIuNTc2MzY1MiA1NC40NzY0OTM2LDQyLjY0MjI4ODggQzU0LjA3OTgxNzcsNDIuOTA2ODQ1NCA1My42MTcwNDg0LDQzLjIzNzI5NDkgNTMuMjIwMzcyNiw0My41Njc4ODQ2IEM1My4yMjAzNzI2LDQzLjU2Nzg4NDYgNTMuMTU0MTQ3Miw0My42MzQwNzkyIDUzLjA4ODI0OTIsNDMuNzAwMDA5OSBDNTIuNzU3Njk1NCw0My45NjQ1Njc2IDUyLjQyNzEwODgsNDQuMjI4ODk5MiA1Mi4wOTY1NTU5LDQ0LjQ5MzMzIEM1MS45NjQ0MzQ3LDQ0LjU1OTUzNDkgNTEuODMyMDAxMyw0NC42OTE2NjU0IDUxLjY5OTg3OSw0NC43NTc4ODY2IEM1MS4zNjkzMjUyLDQ1LjAyMjQ0NjQgNTEuMDM4NzcxMyw0NS4zNTI5MDgxIDUwLjcwODIxNjQsNDUuNjE3MzYzNSBDNTAuNjQxOTkxMSw0NS43NDk0ODk5IDUwLjUwOTg3OSw0NS44MTU2OTk5IDUwLjQ0MzY2MTgsNDUuODgxOTIyMiBDNTAuMDQ2OTg0OSw0Ni4yNzg1OTQgNDkuNjUwMzA3LDQ2LjYwOTE0NDggNDkuMjUzNjMwMSw0Ny4wMDU4Mjk5IEM0OS4xODc0MDQ3LDQ3LjAwNTgyOTkgNDkuMTg3NDA0Nyw0Ny4wNzIwMzQ4IDQ5LjEyMTUwNzgsNDcuMTM3OTQ0IEM0OC43MjQ4MzA5LDQ3LjQ2ODUwODEgNDguMzI4MTU1LDQ3Ljg2NTE4MDkgNDcuOTMxNDc4MSw0OC4yNjE4NjUgQzQ3Ljg2NTI1MjcsNDguMzI4MDY5OSA0Ny44NjUyNTI3LDQ4LjM5Mzk3ODEgNDcuNzk5MzU0OCw0OC4zOTM5NzgxIEM0Ny40Njg4MDA5LDQ4LjcyNDUzMDkgNDcuMTM4MjQ3LDQ5LjA1NTExOTUgNDYuODA3NjYxNSw0OS40NTE3NjQ3IEM0Ni42NzU1NDEyLDQ5LjU4Mzg5MTEgNDYuNDc3MTA3Niw0OS43MTYzMjQ1IDQ2LjM0NDg5MzIsNDkuODQ4NDM2NSBDNDYuMDE0MzM5NCw1MC4yNDUxMjE2IDQ1LjYxNzY2MTQsNTAuNjQxNzkzNCA0NS4yMjA5ODU2LDUxLjAzODQ3ODUgQzQ1LjE1NDc2MDIsNTEuMTcwNTkzNiA0NS4wMjI2NDcxLDUxLjIzNjgxNDkgNDQuOTU2NDI5OSw1MS4zNjkwMjkzIEM0NC40Mjc1MzU2LDUxLjg5Nzk1NTQgNDMuOTY0NzM1Niw1Mi40MjY4NDI2IDQzLjQzNTg0MzMsNTIuOTU1NzQyIEM0My4zNjk2MTc5LDUzLjAyMTk0NjkgNDMuMzAzNzIyLDUzLjA4Nzg1MzEgNDMuMjM3NTA1OSw1My4xNTQwNzg1IEM0Mi4xNzk2ODk1LDU0LjI3Nzk4NTEgNDEuMDU1Nzc5OCw1NS40MDE4OTI4IDM5Ljg2NTc3ODgsNTYuMzkzNTc3OSBDMzguNjc1NzQ5MSw1Ny40NTEzNjI1IDM3LjQxOTYyMjksNTguNDQzMDU0OCAzNi4xNjM0NzAyLDU5LjMwMjUxMTIgQzM0Ljg0MTIyMiw2MC4yMjgxMTExIDMzLjU4NTA5ODksNjEuMDIxNDM0MiAzMi4xOTY3Mjg3LDYxLjgxNDc4OCBDMzAuODc0NDgwNSw2Mi41NDE5OTgzIDI5LjQ4NjExMTQsNjMuMjAzMTQ3IDI4LjAzMTY0OTgsNjMuNzk4MTcyNiBDMjYuNjQzMjc4Niw2NC4zOTMxNzc3IDI1LjE4ODgxODEsNjQuOTIyMDkwNSAyMy43MzQzNTM1LDY1LjM4NDg0OTUgQzIwLjk1NzYxNDEsNjUuOTc5ODU0NiAxOC4xMTQ3ODAzLDY3LjEwMzc3MjUgMTUuNjY4NjI1NSw2Ny4zMDIxMTEgQzE1LjEzOTczMzIsNjcuMzAyMTExIDE0LjU0NDcxNjgsNjcuNDM0MjQ0NSAxNC4wMTU4MjM1LDY3LjUwMDQzOTIgQzEzLjQyMDgxMDIsNjcuNjMyNTYyNSAxMi44OTE5MTY4LDY3Ljc2NTAwMyAxMi4zNjMwMjQ1LDY3Ljg5NzEzNjYgQzExLjgzNDEzMTIsNjguMDk1NDU0NiAxMS4zMDUyMDgyLDY4LjI5MzgwMzMgMTAuNzc2MzEzOCw2OC40OTIxMzE1IEMxMC4yNDc0MjA1LDY4LjY5MDQ2OTkgOS43MTg1MjgxNyw2OC45NTQ5MzE0IDkuMTg5NjM0ODMsNjkuMjE5MzgyNyBDOC43MjY4MzQ4OCw2OS41NDk5MjYzIDguMTk3OTQzNTksNjkuODE0Mzg3OCA3LjczNTE0MTU5LDcwLjE0NDk0MTcgQzcuMjcyMzcwMjgsNzAuNDc1NDk1NiA2LjgwOTU3MDMyLDcwLjg3MjE2MjIgNi40MTI4OTIzOSw3MS4yNjg4NDk0IEM1Ljk1MDEyNDE1LDcxLjU5OTQzMzkgNS40ODczMjQxOSw3Mi4wNjIyMTM0IDUuMDkwNjQ2MjYsNzIuNDU4ODY5OSBDNC42OTM5NjgzMyw3Mi45MjE2OTAzIDQuMjk3MjkyNDUsNzMuMzE4MzU3IDMuOTY2NzM4MTgsNzMuNzgxMTE2IEMzLjYzNjE4NDIyLDc0LjMxMDAwODMgMy4yMzk1MDY1OSw3NC43NzI4MTg1IDIuOTc1MDQ0MjcsNzUuMzAxNzIxIEMyLjY0NDQ5MDQxLDc1Ljc2NDUyMSAyLjMxMzkzNjY2LDc2LjI5MzQwMzEgMi4wNDk0NzQzNCw3Ni44MjIyNzQ5IEMxLjc4NDkxOTIyLDc3LjQxNzMyMSAxLjUyMDU4MjIzLDc3Ljk0NjIwMzEgMS4zMjIyNDI4NSw3OC41NDEyMjg3IEMxLjEyMzkwNDUsNzkuMDcwMTIxIDAuOTI1NTY2MDQ4LDc5LjY2NTEyNjEgMC43MjcyMjc1OTUsODAuMjYwMTUxNyBDMC41OTUxMDYxMSw4MC43ODkwMzM4IDAuNDYyNjcyNjgzLDgxLjMxNzkzNjMgMC4zOTY2NzM5NDEsODEuODQ2ODA4MiBDMC4zOTY2NzM5NDEsODEuOTEzMTA1MSAwLjMzMDQ1OTgzNiw4MS45Nzg5NTIgMC4zMzA0NTk4MzYsODIuMDQ1MTU2OCBDMC4xOTgzMzczMjgsODIuNjQwMjAyOSAwLjE5ODMzNzMyOCw4My40MzM1NjY5IDAuMTMyMTIwNTYzLDgzLjgzMDI1NDEgQzAuMDY1OTA2NDU4NCw4NC4yOTMwMjM0IDAsODQuNjg5Njc5OCAwLDg1LjE1MjQ5IEMwLDg1LjQxNzA0MzYgMCw4NS43NDc0NzQ3IDAuMDY2MjE0MTA1LDg2LjAxMTkyNTkgQzAuMTMyNDI4MjEsODYuNDc0NzM2MSAwLjE5ODMzNDQ2NCw4Ni44NzE0MDI4IDAuMzMwNzY5MTE5LDg3LjI2ODExMDQgQzAuNDYyODkwNjAzLDg3LjY2NDcyNTkgMC41OTUzMjQyMzYsODguMDYxNDEzIDAuNzkzNTM4NDg1LDg4LjQ1ODEwMDIgQzAuNzkzNTM4NDg1LDg4LjUyNDI5NDkgMC43OTM1Mzg0ODUsODguNTI0Mjk0OSAwLjc5MzUzODQ4NSw4OC41MjQyOTQ5IEMwLjk5MTg3NjgzNiw4OC45MjEwMDI1IDEuMjU2MzM5MDYsODkuMzE3NjU4OSAxLjUyMDc3MDA3LDg5LjcxNDMzNTggQzEuNzg1MzI1MDgsOTAuMTExMDEyNyAyLjA0OTY5MzQ4LDkwLjUwNzY4OTYgMi4zODAyNDczNCw5MC45MDQzNzY4IEMyLjcxMDgwMTEsOTEuMjM0OTMwNiAzLjEwNzQ3OTAzLDkxLjYzMTU3NjggMy41MDQxNTU0Myw5MS45NjIxNTEyIEMzLjkwMDgzMzI1LDkyLjM1ODgyODEgNC4yOTc1MTEzOSw5Mi42ODkzODE5IDQuNzYwMjc5NjMsOTMuMDE5OTM1OCBDNi4zNDY5ODgyOCw5NC40MDgzMTUyIDYuNzQzNjY1MTksOTQuODcxMTE1MSA4Ljc5MzE0NzIsOTUuOTI4ODg5NSBDOS4xMjM2OTc5OSw5Ni4xMjcyMzgyIDkuNDU0Mjg1NjEsOTYuMjU5NDYzOSA5Ljg1MDk2MjUyLDk2LjQ1NzgwMjMgQzkuOTE3MTg3ODgsOTYuNDU3ODAyMyA5Ljk4MzA4NDgyLDk2LjUyMzk5NyAxMC4wNDkyOTk5LDk2LjUyMzk5NyBDMTAuMDQ5Mjk5OSw5Ni42NTYxMTAxIDEwLjA0OTI5OTksOTYuNzIyMzQ1NyAxMC4xMTU1MjUzLDk2Ljg1NDU5MTggQzEwLjE4MTc0MDQsOTcuMzgzNDk0MyAxMC4zMTM4NjI3LDk3LjkxMjM2NjIgMTAuNDQ2MDc5Miw5OC40NDEyNzg5IEMxMC41NzgyMDA0LDk5LjAzNjI5NDMgMTAuNzc2NjY0Nyw5OS41NjUyMDcxIDEwLjk3NTAwMzIsMTAwLjAyNzk3NiBDMTEuMTczMzQxNiwxMDAuNDI0NjYzIDExLjMwNTU1NzEsMTAwLjgyMTMyIDExLjUwMzg5NjUsMTAxLjIxODAxNyBDMTEuNTcwMTExNywxMDEuMzUwMTUxIDExLjYzNjAxOTksMTAxLjQ4MjU3MSAxMS43MDIyMzUsMTAxLjU0ODU3MSBDMTEuOTY2Nzg5NiwxMDIuMDc3NDUzIDEyLjIzMTEyNzMsMTAyLjU0MDI4NCAxMi40OTU1NTgxLDEwMy4wMDMwMzMgQzEyLjgyNjE0MzcsMTAzLjQ2NTgxMiAxMy4xNTY2OTY1LDEwMy45Mjg1OTIgMTMuNDg3MjQ5NCwxMDQuMzkxNDEyIEMxMy44MTc4MDUzLDEwNC43ODgwNjkgMTQuMjE0NDgzMiwxMDUuMjUwODU4IDE0LjYxMTE1OTEsMTA1LjY0NzUyNSBDMTUuMDA3ODM3LDEwNi4wNDQyMTIgMTUuNDA0NTE0OSwxMDYuMzc0Nzc2IDE1Ljg2NzMxNTksMTA2Ljc3MTQyMiBDMTUuODY3MzE1OSwxMDYuNzcxNDIyIDE1LjkzMzU0MTMsMTA2LjgzNzcxOSAxNS45OTk0MzYyLDEwNi44Mzc3MTkgQzE2LjM5NjExNTEsMTA3LjE2ODMwNCAxNi43OTI3OSwxMDcuNDk4ODY4IDE3LjE4OTQ2ODksMTA3Ljc2MzI3OCBDMTcuNjUyMjM4MiwxMDguMDkzODUzIDE4LjExNTAzODIsMTA4LjM1ODI4MyAxOC42NDM5Mjk0LDEwOC42MjI3NTUgQzE5LjEwNjczMDQsMTA4Ljg4NzMwOSAxOS42MzU2MjM4LDEwOS4xNTE2NDggMjAuMTY0NTE2MSwxMDkuMzQ5OTk2IEMyMC41NjExOTQsMTA5LjU0ODMzNSAyMS4wMjM5NjIyLDEwOS42ODA1NzEgMjEuNDg2NzY0MiwxMDkuODEyNzg2IEMyMS41NTI5ODk2LDEwOS44NzkwODMgMjEuNjE4ODg1NSwxMDkuODc5MDgzIDIxLjc1MTMxOTksMTA5Ljk0NDkzIEMyMi4wMTU4NzQ1LDExMC4wMTEyMjcgMjIuMzQ2MzAyNSwxMTAuMDc3MDMzIDIyLjYxMDc2NSwxMTAuMTQzMjQ4IEMyMi40MTI0Mjc2LDExMy43MTMzMDkgMjIuMzQ2MjA5NCwxMTcuMDg1MDMyIDIyLjg3NTMyMTcsMTE4LjI3NTA4MyBDMjMuNDcwMzA2MywxMTkuNTk3MzE5IDI2LjM3OTI2MTEsMTE1LjU2NDQ2OCAyOS4yODgyMTgsMTEwLjkzNjYxMiBDMjguODkxNTQyMSwxMTUuNDk4MzY1IDI4LjYyNzA3ODUsMTIwLjg1MzQzMiAyOS4yODgyMTgsMTIyLjQ0MDE3IEMzMC4wMTU0NDc3LDEyNC4wOTI5NCAzMy45ODIxODkxLDExOC45MzYxODEgMzcuNDIwMDM2MiwxMTMuMjUwNTE5IEM4NC4yOTM2OTg4LDEwMi40MDgxMyAxMjcuMDY4NDY1LDEzNC44MDMxNzUgMTMxLjU2NDA4NSwxODAuNTUyOTI4IEMxMzAuNzA0NjE5LDE3My40MTI3ODUgMTIxLjkxMTY3NSwxNjkuNDQ2MDU3IDExNy44Nzg4NDUsMTcwLjQzNzc1OSBDMTE1Ljg5NTQ1LDE3NS4zMzAwNTYgMTEyLjUyMzcyNywxODEuNjEwNzIzIDEwNy4xMDI1MjcsMTg1LjUxMTM1OSBDMTA3LjU2NTMwNiwxODEuMTQ3OTMzIDEwNy4zNjcwNiwxNzYuNjUyMzEzIDEwNi40NDE0MDksMTcyLjI4ODg3NyBDMTA0Ljk4NjkxNywxNzguMzcxMjI2IDEwMi4xNDQwNzYsMTg0LjA1NjkxOCA5OC4yNDM0Mjk3LDE4OC45NDkyMTUgQzkxLjk2Mjc1NiwxODkuNDExOTg0IDg1LjY4MjA2NywxODYuMzcwODA1IDgyLjM3NjQzNTMsMTgxLjgwOTA4MiBDODIuMTExODc5NiwxODEuNjEwNzIzIDgyLjA0NTg4MDQsMTgxLjIxNDA1NiA4MS44NDc1NDE5LDE4MC45NDk2MTUgQzgxLjY0OTIwMTQsMTgwLjQ4Njc4NSA4MS40NTA4NjYsMTgwLjAyNDA0NiA4MS4zMTg2NDg2LDE3OS41NjEyMzYgQzgxLjEyMDMxMTIsMTc5LjA5ODQ2NyA4MC45ODgwOTU4LDE3OC42MzU2NjcgODAuOTIxOTcyNywxNzguMTcyODk3IEM4MC44NTU3NDc0LDE3Ny43MTAwODcgODAuODU1NzQ3NCwxNzcuMjQ3MzA4IDgwLjg1NTc0NzQsMTc2LjcxODQyNiBDODAuODU1NzQ3NCwxNzYuMzg3ODQxIDgwLjg1NTc0NzQsMTc2LjA1NzI5NyA4MC44NTU3NDc0LDE3NS43MjY3NTQgQzgwLjkyMTk3MjcsMTc1LjI2MzkyMyA4MS4wNTQwODU4LDE3NC44MDExNDQgODEuMTg2MzAyMiwxNzQuMzM4MzU0IEM4MS4zMTg0MjM1LDE3My44NzU1ODUgODEuNDUwODU1OCwxNzMuNDEyNzg1IDgxLjY0OTEwMjIsMTcyLjk0OTk5NSBDODEuOTEzNjU3OCwxNzIuNDg3MjM2IDgyLjExMTg3MTUsMTcyLjAyNDQzNiA4Mi40NDI0NTcsMTcxLjU2MTY2NyBDODMuNTY2MzY0NywxNjguMzg4MjMxIDgzLjU2NjM2NDcsMTY1LjgwOTg3MiA4MS41MTY4ODc4LDE2NC4yODkyOTggQzgxLjEyMDIwOTksMTY0LjAyNDc0NCA4MC43MjM1MzMsMTYzLjgyNjQ4OCA4MC4yNjA3MzMsMTYzLjYyODE0OSBDNzkuOTk2MTc1MywxNjMuNTYxOTU0IDc5LjY2NTcxNTYsMTYzLjQyOTgxMSA3OS40MDEyODY4LDE2My4zNjM2MDYgQzc5LjIwMjk0NzQsMTYzLjI5NzQxMSA3OS4wNzA3MzMsMTYzLjIzMTQ2MiA3OC44NzIzOTM1LDE2My4xNjUyNTcgQzc4LjQwOTU5MjUsMTYzLjAzMzEzNCA3Ny45NDY3OTE1LDE2Mi45MDA2OTMgNzcuNDg0MDIyMywxNjIuODM0NzAzIEM3Ny4wMjEyMjIzLDE2Mi43MDI1OSA3Ni41NTg0NTMxLDE2Mi42MzYzNjUgNzYuMDk1NjUzMSwxNjIuNjM2MzY1IEM3NS42MzI4ODI4LDE2Mi41NzAwNjggNzUuMTAzOTU3OCwxNjIuNTA0MjQxIDc0LjY0MTE4OTUsMTYyLjUwNDI0MSBDNzQuMzEwNjM2NywxNjIuNTA0MjQxIDczLjk4MDA1MTEsMTYyLjU3MDQzNiA3My42NDk0OTYyLDE2Mi41NzA0MzYgQzczLjEyMDYwNDksMTYyLjU3MDQzNiA3Mi42NTc4MDUsMTYyLjYzNjczMyA3Mi4xOTUwMzM3LDE2Mi43Njg3NzUgQzcxLjczMjIzMzcsMTYyLjgzNTA3MiA3MS4yNjk0NjU1LDE2Mi45MDA4ODggNzAuODA2NjY1NSwxNjMuMDMzMzA4IEM3MC4zNDM4OTQyLDE2My4xNjU0NDEgNjkuODgxMDkzMiwxNjMuMjk3ODcxIDY5LjQxODI5MzMsMTYzLjQ5NjEzOCBDNjguOTU1NTI1LDE2My42OTQ0NjcgNjguNTU4ODQ2MSwxNjMuODkyODA1IDY4LjA5NjA0ODIsMTY0LjA5MTE0MyBDNjcuNjk5NDAyLDE2NC4yODk0OTIgNjcuMzAyNzIzLDE2NC41NTM5MTMgNjYuODM5OTI0MSwxNjQuNzUyMjUxIEM1MS40MzU3Mjg2LDE3NC44MDEzMjggNjAuNjI1MzY1MiwxOTguMzM3MzM4IDcxLjEzNzIyMDQsMjA1LjE0NjkxNyBDNjcuMTcwNDc2OSwyMDUuODc0MTQ4IDYzLjEzNzY0NDEsMjA2LjczMzY0NSA2Mi4wMTM3MzQ0LDIwNy41OTMwNzEgQzYxLjk0NzUwOSwyMDcuNjU5MjY1IDYxLjg4MTYxMzEsMjA3LjcyNTIwNCA2MS44ODE2MTMxLDIwNy43MjUyMDQgQzY0LjcyNDQ0NTksMjA5LjQ0NDEwNyA2Ny42OTk0OTYxLDIxMC44OTg1ODkgNzAuODA2NzU3NiwyMTIuMTU0NzEyIEM3NS4wMzc5NjI2LDIxMy41NDMwODEgNzkuNTMzNTk0MywyMTQuNzk5MjE0IDgxLjUxNjk3OTksMjE1LjMyODEyNyBDODEuNTE2OTc5OSwyMTUuMzI4MTI3IDgxLjUxNjk3OTksMjE1LjM5NDMyMiA4MS41MTY5Nzk5LDIxNS4zOTQzMjIgQzg3LjAwNDMwNjksMjE2LjUxODI0IDkyLjU1Nzc1OTEsMjE2LjkxNDkxNyA5OC4xNzczMDY3LDIxNi41ODQzNjMgQzEyNy40NjUxMTEsMjE0LjUzNDg3NiAxNTEuNDYzOTExLDE5Mi4yNTQ5NzkgMTU1LjgyNzMzNiwxNjIuOTAxMDkyIEMxNTUuOTU5NDU5LDE2My40OTYxMTggMTU2LjA5MTg5LDE2NC4wMjQ5OSAxNTYuMjI0MDEzLDE2NC42MjAwMjYgQzE1Ni40MjIzNjIsMTY1LjgxMDAxNSAxNTYuNjg2NzgyLDE2Ny4wNjYxNTkgMTU2LjgxODk5OCwxNjguMzIyMjkyIEMxNTYuODE4OTk4LDE2OC4zMjIyOTIgMTU2LjgxODk5OCwxNjguMzIyMjkyIDE1Ni44MTg5OTgsMTY4LjM4ODU4OSBDMTU2Ljk1MTEyMSwxNjguOTgzNjA0IDE1Ny4wMTczMzYsMTY5LjU3ODYxIDE1Ny4wODM1NTEsMTcwLjEwNzUwMiBDMTU3LjA4MzU1MSwxNzAuMjM5NjI1IDE1Ny4wODM1NTEsMTcwLjMwNTg0IDE1Ny4wODM1NTEsMTcwLjM3MjA2NiBDMTU3LjE0OTg0OCwxNzAuOTY3MDcxIDE1Ny4yMTU2ODUsMTcxLjU2MjA5NiAxNTcuMjE1Njg1LDE3Mi4wOTA5NzkgQzE1Ny4yODE4NzksMTcyLjgxODIyIDE1Ny4zNDc4MDgsMTczLjU0NTQ0IDE1Ny4zNDc4MDgsMTc0LjI3MjcxMiBDMTU3LjM0NzgwOCwxNzQuNjAzMjY2IDE1Ny4zNDc4MDgsMTc0LjkzMzgzIDE1Ny4zNDc4MDgsMTc1LjMzMDQ5NiBDMTU3LjM0NzgwOCwxNzUuNjYxMDgxIDE1Ny40MTQwMDMsMTc2LjA1NzcxNyAxNTcuNDE0MDAzLDE3Ni4zODgzMDEgQzE1Ny40MTQwMDMsMTc2Ljc4NDk4OSAxNTcuMzQ3ODA4LDE3Ny4xODE2MzUgMTU3LjM0NzgwOCwxNzcuNTc4MzEyIEMxNTcuMzQ3ODA4LDE3Ny45MDg5MDcgMTU3LjM0NzgwOCwxNzguMjM5NDUgMTU3LjM0NzgwOCwxNzguNTAzODgxIEMxNTcuMzQ3ODA4LDE3OC45NjY2OTEgMTU3LjI4MTUxMSwxNzkuMzYzMzQ4IDE1Ny4yODE1MTEsMTc5LjgyNjEzNyBDMTU3LjI4MTUxMSwxODAuMDkwNjcgMTU3LjI4MTUxMSwxODAuMzU1MDQgMTU3LjIxNTMxNiwxODAuNjg1NjA0IEMxNTcuMjE1MzE2LDE4MS4xNDg0MTQgMTU3LjE0OTEyMiwxODEuNjExMTYzIDE1Ny4xNDkxMjIsMTgyLjE0MDA2NSBDMTU3LjA4MjgyNSwxODIuMzM4NDA0IDE1Ny4wODI4MjUsMTgyLjUzNjc0MiAxNTcuMDgyODI1LDE4Mi43MzUwOTEgQzE1Ny4wMTY2MywxODMuMjYzOTk0IDE1Ni45NTA3MDEsMTgzLjcyNjc4MyAxNTYuODg0NDc2LDE4NC4yNTU2ODYgQzE1Ni44ODQ0NzYsMTg0LjQ1NDAzNSAxNTYuODg0NDc2LDE4NC42NTIzNTMgMTU2LjgxODI4MSwxODQuODUwNzExIEMxNTYuNzUxOTg0LDE4NS41MTE4MDkgMTU2LjYxOTk1MywxODYuMTA2ODQ1IDE1Ni41NTM3NTksMTg2Ljc2Nzk0MiBDMTU2LjU1Mzc1OSwxODYuNzY3OTQyIDE1Ni41NTM3NTksMTg2LjgzNDIzOSAxNTYuNTUzNzU5LDE4Ni44MzQyMzkgTDE1Ni41NTM3NTksMTg2LjkwMDQzNCBDMTU2LjQyMTYzNSwxODcuNDk1NDM5IDE1Ni4yODkxODUsMTg4LjE1NjU1NyAxNTYuMTU3MDUxLDE4OC43NTE1NjIgQzE1Ni4xNTcwNTEsMTg4LjgxNzc1NyAxNTYuMTU3MDUxLDE4OC44ODM2ODUgMTU2LjE1NzA1MSwxODguOTQ5OTExIEMxNTYuMDI0OTQ4LDE4OS41NDQ5MDYgMTU1Ljg5MjQ5NywxOTAuMTM5OTQyIDE1NS43NjAzOTUsMTkwLjczNDkyNiBDMTU1Ljc2MDM5NSwxOTAuODAxMjIzIDE1NS42OTQyLDE5MC45MzMyNzUgMTU1LjY5NDIsMTkwLjk5OTQ1OSBDMTU1LjU2MjA1NiwxOTEuNTk0NDk1IDE1NS40Mjk2MjYsMTkyLjE4OTUgMTU1LjIzMTQzMSwxOTIuNzg0NTQ2IEMxNTUuMjMxNDMxLDE5Mi44NTA3NDEgMTU1LjIzMTQzMSwxOTIuOTE2NjQ5IDE1NS4yMzE0MzEsMTkyLjk4Mjg2NCBDMTU1LjAzMzA5MiwxOTMuNjQzOTYyIDE1NC44MzQ3NDMsMTk0LjIzODk4NyAxNTQuNzAyNTA4LDE5NC44MzQwMDMgQzE1NC42MzYzMTMsMTk0LjkwMDE5NyAxNTQuNjM2MzEzLDE5NC45NjYxMjYgMTU0LjYzNjMxMywxOTQuOTY2MTI2IEMxNTQuNDM3OTY0LDE5NS42MjcyNjUgMTU0LjIzOTY0NiwxOTYuMjg4MzcyIDE1NC4wNDEzMjgsMTk2Ljk0OTQ5IEMxNTMuNzc2Nzc1LDE5Ny42MTA2MjkgMTUzLjU3ODUzOSwxOTguMjA1NjM0IDE1My4zMTQwOTcsMTk4Ljg2Njc2MiBDMTUzLjA0OTU1NCwxOTkuNTI3ODkgMTUyLjg1MTI4NywyMDAuMTg5MDE4IDE1Mi41ODY4NDYsMjAwLjc4NDAxMyBDMTUyLjMyMjI4MiwyMDEuNDQ1MTYyIDE1Mi4wNTc5MzMsMjAyLjA0MDE3NyAxNTEuNzkzNTAzLDIwMi43MDEyNzUgQzE1MS43OTM1MDMsMjAyLjcwMTI3NSAxNTEuNzI3MjA2LDIwMi43MDEyNzUgMTUxLjcyNzIwNiwyMDIuNzAxMjc1IEMxNTEuNDYyNjMyLDIwMy4yOTYyOCAxNTEuMTk4MjcyLDIwMy45NTc0MjggMTUwLjg2NzY5OCwyMDQuNTUyNDU0IEMxNTAuODY3Njk4LDIwNC41NTI0NTQgMTUwLjg2NzY5OCwyMDQuNTUyNDU0IDE1MC44Njc2OTgsMjA0LjU1MjQ1NCBDMTUwLjg2NzY5OCwyMDQuNTUyNDU0IDE1MC44Njc2OTgsMjA0LjU1MjQ1NCAxNTAuODY3Njk4LDIwNC41NTI0NTQgQzE1MC44MDE1MDMsMjA0Ljc1MDc2MiAxNTAuNzM1NTk1LDIwNC44ODMwMDggMTUwLjY2OTM4LDIwNS4wMTUyMDMgQzE1MC42MDMxODUsMjA1LjA4MTUgMTUwLjYwMzE4NSwyMDUuMTQ3MzI2IDE1MC41MzcyNTcsMjA1LjIxMzU2MiBDMTQ2LjIzOTk2NSwyMTMuODc0MjU5IDEzOS44OTMxNDQsMjIxLjQ3NzE4MiAxMzEuOTU5Njg4LDIyNy40MjczMTUgQzEzMS40MzA3OTYsMjI3Ljc1Nzg2OSAxMzAuOTAxODgzLDIyOC4xNTQ1NTYgMTMwLjM3MzAwMSwyMjguNTUxMjEzIEMxMzAuMzczMDAxLDIyOC41NTEyMTMgMTMwLjM3MzAwMSwyMjguNTUxMjEzIDEzMC4zNzMwMDEsMjI4LjU1MTIxMyBDMTMwLjI0MDg2NywyMjguNjgzMzQ2IDEzMC4wNDI0MTYsMjI4Ljc0OTU3MSAxMjkuOTEwMjAxLDIyOC44ODE3NjYgQzEyOS40NDc0MDEsMjI5LjIxMjMzIDEyOC45ODQ2MjEsMjI5LjU0Mjg3NCAxMjguNDU1NzUsMjI5Ljg3MzQ2OSBMMTI4LjY1NDA3OCwyMzAuMjcwMTQ2IEwxMjguNzIwMjcyLDIzMC4yNzAxNDYgQzEyOS42NDU4MzEsMjMwLjEzODAzMyAxMzAuNTcxNDExLDIzMC4wMDU1OTIgMTMxLjQ5Njk5LDIyOS44NzM0NjkgTDEzMS41NjMxODUsMjI5Ljg3MzQ2OSBDMTMzLjI4MjExOCwyMjkuNjA4OTE1IDEzNS4wMDEwNDEsMjI5LjI3ODQ1NCAxMzYuNzE5OTc1LDIyOC45NDc5IEMxMzcuMTgyNzM0LDIyOC44ODE2MDMgMTM3LjcxMTY2NywyMjguNzQ5NTcxIDEzOC4xNzQ0MjYsMjI4LjYxNzMxNSBDMTM4LjUwNDk4LDIyOC41NTEwMTggMTM4Ljc2OTQ0MSwyMjguNDg1MjAyIDEzOS4wOTk5OTUsMjI4LjQxODk3NyBDMTM5LjU2Mjc5NSwyMjguMzUyNjggMTQwLjAyNTU3NSwyMjguMjIwNjM4IDE0MC40ODgzODUsMjI4LjE1NDQzMyBDMTQwLjg4NTA0MSwyMjguMDIyMzEgMTQxLjI4MTcyOCwyMjcuOTU2MDc0IDE0MS42NzgzOTUsMjI3LjgyMzg2OSBDMTQ4LjI4OTYyNiwyMjYuMjM3MTUxIDE1NC43MDI1NDksMjI0LjA1NTQyOCAxNjAuODUwOTU5LDIyMS40NzcwNjkgQzE1MC4zMzkxMjMsMjM1LjgyMzQzOCAxMzYuMjU3MTY0LDI0Ny4zOTMxMiAxMTkuNzk1MTg1LDI1NC45OTYwNDMgQzEyNy4zOTgxMjksMjU0LjQ2NzE0IDEzNS4wMDEwNDEsMjUzLjIxMTAxNyAxNDIuMzM5NTEzLDI1MS4wOTU0MjggQzE2OC45ODI4MTUsMjQzLjIyODAxMyAxOTEuMzk0ODk2LDIyNS4zMTE1ODIgMjA0LjgxNTcwNiwyMDEuMTgwNTU3IEMyMDIuMTA1MTAxLDIxNi40NTI1MzYgMTk2LjAyMjc2MywyMzAuOTk3MjU0IDE4Ny4wMzE0OTEsMjQzLjY5MDg0MyBDMTkzLjQ0NDM4NCwyMzkuNDU5NjEzIDE5OS4zMjgzODMsMjM0LjU2NzMwNSAyMDQuNjgzNDkxLDIyOS4wMTM4NjkgQzIxOS40OTI2NiwyMTMuNTQzNTgyIDIyOS4yMTEyMDMsMTkzLjkwODIyOSAyMzIuNTE2NzkzLDE3Mi44MTgzMzIgQzIzNC43NjQ2MjksMTgzLjI2NDA5NiAyMzUuNDI1NzU3LDE5NC4wNDA0NTUgMjM0LjQzNDA2NSwyMDQuNjg0NTI2IEMyODIuMTY3MjEyLDEzOC4xMDkzNDggMjM4LjQwMDgwMyw2OS4wODgwMTY1IDIyMC4wODc2ODYsNTAuOTA3MTEzMyBDMjIwLjAyMTM4OSw1MC43NzQ5OTcxIDIxOS45NTU1NjIsNTAuNzA4Nzc2OSAyMTkuOTU1NTYyLDUwLjU3NjU2MDUgQzIxOS44ODkyNjUsNTAuNjQyNzU1MSAyMTkuODg5MjY1LDUwLjY0Mjc1NTEgMjE5Ljg4OTI2NSw1MC43MDg2ODc5IEMyMTkuODg5MjY1LDUwLjY0MjQ4MyAyMTkuODg5MjY1LDUwLjY0MjQ4MyAyMTkuODIzMDcxLDUwLjU3NjU2MDUgQzIxOS44MjMwNzEsNTEuMzY5OTE2MyAyMTkuNzU2ODc2LDUyLjE2MzIzNTQgMjE5LjY5MDk0Nyw1Mi45NTY1OTIyIEMyMTkuNDkyNTk5LDU0LjQ3NzE3NjggMjE5LjI5NDI4MSw1NS45MzE2NDc2IDIxOS4wMjk4MDksNTcuMzg2MTM5OCBDMjE4LjY5OTI2NSw1OC44NDA2MDEzIDIxOC4zMDI1NzgsNjAuMjk1MDQyNCAyMTcuOTA1ODkxLDYxLjc0OTU0NDggQzIxNy40NDMxMjIsNjMuMTM3ODgzMyAyMTYuOTE0MjUsNjQuNTkyMzU1MSAyMTYuMzE5MjE0LDY1Ljk4MDczNDUgQzIxNS43MjQxOTksNjcuMzAyOTYwMiAyMTUuMDYzMDcsNjguNjkxMzI5MyAyMTQuMzM1ODQsNzAuMDEzNTk1OSBDMjEzLjYwODU5OSw3MS4yNjk3Mzk1IDIxMi44MTUyNTUsNzIuNTkxOTc1NCAyMTEuOTU1ODA5LDczLjc4MTk4NTYgQzIxMS4wOTYzNDIsNzUuMDM4MTQ5NiAyMTAuMTcwNzYzLDc2LjIyODE0OTcgMjA5LjI0NTE3Myw3Ny4zNTIwMzY5IEMyMDguMjUzNDcxLDc4LjU0MjA4ODEgMjA3LjE5NTcwNiw3OS41OTk4OTMxIDIwNi4xMzc4OTEsODAuNjU3Njg4IEMyMDUuNDc2NzgzLDgxLjI1MjcwMzQgMjA0Ljg4MTc3OCw4MS43ODE1OTU3IDIwNC4yMjA2MTksODIuMzEwNDY3NSBDMjAzLjY5MTczNyw4Mi43NzMyNzc3IDIwMy4yMjg5NTgsODMuMTY5OTY0OSAyMDIuNzAwMDM1LDgzLjYzMjcxMzcgQzIwMS41MTAwMjUsODQuNTU4MjkzMSAyMDAuMzIwMDA0LDg1LjQxNzc1OTcgMTk4Ljk5Nzc2OCw4Ni4yMTExMjM4IEMxOTcuNzQxNjI1LDg3LjAwNDQ1NzEgMTk2LjQxOTQwOSw4Ny43OTc4MTEgMTk1LjA5NzE1Myw4OC40NTg5NDk0IEMxOTMuNzA4Nzg0LDg5LjEyMDA2NzMgMTkyLjMyMDQxNSw4OS43MTUwNzI0IDE5MC45MzIwNjYsOTAuMzEwMDk4IEMxODkuNTQzNjk3LDkwLjgzODk2OTkgMTg4LjA4OTIzNSw5MS4zMDE3Njk4IDE4Ni42MzQ3MjIsOTEuNjk4NDU3IEMxODUuMTgwMjcxLDkyLjA5NTExMzQgMTgzLjY1OTY5Nyw5Mi40MjU2ODc3IDE4Mi4yMDUyMTUsOTIuNjkwMTI4OCBDMTgwLjY4NDY1MSw5Mi45NTQ2ODI0IDE3OS4xNjQwNTYsOTMuMDg2Nzk1NSAxNzcuNzA5NTg0LDkzLjIxOTA0MTYgQzE3Ni42NTE3NzksOTMuMjg1MjM2MiAxNzUuNTkzOTk0LDkzLjM1MTE3NTEgMTc0LjUzNjE3OSw5My4zNTExNzUxIEMxNzMuMDE1NTg0LDkzLjM1MTE3NTEgMTcxLjQ5NTAzLDkzLjIxOTA0MTYgMTcwLjA0MDU0OCw5My4wODY2MjE1IEMxNjguNTE5OTc0LDkyLjk1NDQ5ODIgMTY2Ljk5OTM2OSw5Mi43NTYwMTY1IDE2NS41NDQ5MDcsOTIuNDI1NDYyNyBDMTY0LjAyNDMyMyw5Mi4xNjA5MDkxIDE2Mi41Njk4MzEsOTEuNzY0MzI0MyAxNjEuMTE1MzU5LDkxLjMwMTU3NTQgTDE2MS4wNDkxNjQsOTEuMzAxNTc1NCBDMTYyLjUwMzYzNiw5MS4xNjk0NTIxIDE2My45NTgxMTgsOTEuMDM3MDAxNCAxNjUuNDEyNjEsOTAuNzcyNjYyNyBDMTY2LjkzMzE2NCw5MC41MDgxMDkxIDE2OC4zODc2MzYsOTAuMTc3NjY3OCAxNjkuODQyMTI4LDg5Ljc4MDk2MDIgQzE3MS4yOTY1OSw4OS4zODQyOTM1IDE3Mi43NTEwNjEsODguOTIxNDkzNSAxNzQuMTM5NDIsODguMzkyNjExNSBDMTc1LjU5Mzg4Miw4Ny44NjM3MDg5IDE3Ni45ODIyNjEsODcuMjAyNjExNCAxNzguMzA0NTE4LDg2LjU0MTQ1MjYgQzE3OS42OTI4NjYsODUuODgwMzE0MSAxODAuOTQ5MDEsODUuMTUzMTAzOCAxODIuMjcxMjQ2LDg0LjM1OTc1IEMxODMuNTI3MzY5LDgzLjUwMDI5MzYgMTg0Ljc4MzUxMiw4Mi42NDA4NDc1IDE4NS45NzM1MzMsODEuNzE1MjQ3NSBDMTg3LjE2MzU2NCw4MC43ODk2ODg2IDE4OC4yODc0NTEsNzkuNzk4MDE2NyAxODkuMzQ1Mjg3LDc4Ljc0MDIxMTcgQzE5MC40NjkxOTQsNzcuNzQ4NDk4OSAxOTEuNDYwODY2LDc2LjYyNDYwMTUgMTkyLjQ1MjU1OCw3NS41MDA2ODM2IEMxOTMuNDQ0MjIsNzQuMzEwNjkzOCAxOTQuMzY5ODEsNzMuMTIwNjYzMSAxOTUuMjI5Mjc2LDcxLjkzMDYzMjMgQzE5NS4zNjE0MSw3MS43MzIyODM3IDE5NS40OTM4NCw3MS40Njc4NjMxIDE5NS42MjU5NzQsNzEuMjY5NTE0NCBDMTk2LjI4NzA3MSw3MC4yMTE3MDkzIDE5Ni45NDgxNzksNjkuMTUzOTE0NCAxOTcuNTQzMTg0LDY4LjA5NjA5OTEgQzE5OC4yNzA0MzUsNjYuNzczODUzIDE5OC45MzE1NzQsNjUuNDUxNTk2NiAxOTkuNTI2NTY4LDY0LjA2MzI2ODQgQzIwMC4xMjE1OTQsNjIuNjc0ODk5MiAyMDAuNjUwNDk3LDYxLjI4NjUxOTggMjAxLjExMzI4Niw1OS44MzIwNjg1IEMyMDEuNTc2MDU2LDU4LjQ0MzY4OTEgMjAxLjkwNjYyLDU2Ljk4OTIzNzggMjAyLjIzNzE5NCw1NS41MzQ3NzgzIEMyMDIuNTAxNzU4LDU0LjAxNDE4NTUgMjAyLjc2NjA3Niw1Mi41NTk2OTEzIDIwMi44OTgzMTIsNTEuMTA1MjMxOCBDMjAzLjAzMDQzNSw0OS41ODQ2NTMzIDIwMy4xNjI4NTUsNDguMDY0MDU5NiAyMDMuMTYyODU1LDQ2LjYwOTYwMjEgQzIwMy4xNjI4NTUsNDUuNTUxNzg4OCAyMDMuMDk2NTU4LDQ0LjQ5NDAwMjIgMjAzLjAzMDc1Miw0My40MzYyMTQ1IEMyMDIuODk4NjE5LDQxLjkxNTYzNCAyMDIuNzAwMTc4LDQwLjQ2MTEzNzcgMjAyLjUwMTg1LDM5LjAwNjY3NzIgQzIwMi4yMzcyODYsMzcuNDg2MDg1NCAyMDEuOTA2ODQ1LDM2LjAzMTYyOCAyMDEuNTEwMTQ3LDM0LjU3NzEyOTYgQzIwMS4wNDczODgsMzMuMTg4NzkwMSAyMDAuNTg0NTc4LDMxLjczNDMwNSAyMDAuMDU1Njk2LDMwLjM0NTk2NzYgQzE5OS41MjY3NjMsMjguOTU3NTkwMiAxOTguODY1Njc2LDI3LjU2OTIyNzIgMTk4LjIwNDUxNywyNi4yNDY5Njk4IEMxOTcuNDc3Mjg2LDI0LjkyNDcyNTcgMTk2Ljc1MDA2NSwyMy42MDI0ODE2IDE5NS45NTY3MjIsMjIuMzQ2MzU4NiBDMTk1LjA5NzI2NSwyMS4wOTAyMzU1IDE5NC4yMzc3NzgsMTkuOTAwMjA3OCAxOTMuMzEyMjA5LDE4LjcxMDE2NjkgQzE5Mi4zMjA1NDgsMTcuNTg2MjU4MiAxOTEuMzI4ODU1LDE2LjQ2MjM1MTUgMTkwLjI3MTAzLDE1LjMzODQ0MzkgQzE4OS43NDIxNDgsMTQuODA5NTU0NiAxODkuMTQ3MTIyLDE0LjIxNDUzNDEgMTg4LjU1MjExNywxMy42ODU2NDggQzE4NS41NzcwNzEsMTEuMzcxNjk5MyAxODIuNDY5Nzc5LDkuMTg5OTc3MzcgMTc5LjM2MjUxNyw3LjIwNjYyMDQ1IEMxNzguODk5NzM4LDYuOTQyMDczMDEgMTc4LjUwMzA2MSw2Ljc0MzgyODY4IDE3OC4wNDAyNjEsNi41NDU0OCBDMTc1Ljg1ODUzOCw1LjE1NzEzOTQ3IDE3My44MDkwNjEsNC40Mjk4NzkwMyAxNzEuNzU5NTk0LDMuNzY4Nzc1NDEgTDE3MS43NTk0ODIsMy43Njg0MDgxMSBaIj4mI3hhOyYjeGE7PC9wYXRoPiYjeGE7ICAgIDwvZz4mI3hhOzwvc3ZnPg==;" vertex="1" parent="1">
          <mxGeometry x="501" y="360.75" width="58.72" height="58.5" as="geometry" />
        </mxCell>
        <mxCell id="T6b7CAbE1X9xuzdlVGs--23" value="" style="shape=image;verticalLabelPosition=bottom;labelBackgroundColor=default;verticalAlign=top;aspect=fixed;imageAspect=0;editableCssRules=.*;image=data:image/svg+xml,PHN2ZyB4bWxuczp4bGluaz0iaHR0cDovL3d3dy53My5vcmcvMTk5OS94bGluayIgeG1sbnM9Imh0dHA6Ly93d3cudzMub3JnLzIwMDAvc3ZnIiBwcmVzZXJ2ZUFzcGVjdFJhdGlvPSJ4TWlkWU1pZCIgdmVyc2lvbj0iMS4xIiB2aWV3Qm94PSItMTEgMC4wMDAzNzg4NDcxMjIxOTIzODI4IDI2Ny4wMDAwNjEwMzUxNTYyNSAzMjYuOTE5NjQ3MjE2Nzk2OSIgaGVpZ2h0PSI3OTkuODAzNDE4MjY3MzkzIiB3aWR0aD0iNjUzLjIxMTE1ODQ5NTc5NTEiPiYjeGE7CTxnPiYjeGE7CQk8cGF0aCBmaWxsPSIjMDAwMDAwIiBkPSJNNjkuMjk4MTMwOSwwLjAwNSBDNjcuNjQ1MTMwOSwwLjA1NiA2NS44NjUxMzA5LDAuNjY3IDYzLjg0NTEzMDksMi4yNiBDNTguODk5MTMwOSwwLjM1MyA1NC4xMDIxMzA5LC0wLjMxIDQ5LjgxMzEzMDksMy41NzMgQzQzLjE5MDEzMDksMi43MTQgNDEuMDM4MTMwOSw0LjQ4NyAzOS40MDcxMzA5LDYuNTU3IEMzNy45NTMxMzA5LDYuNTI3IDI4LjUyODEzMDksNS4wNjIgMjQuMjA1MTMwOSwxMS41MSBDMTMuMzQzMTMwOSwxMC4yMjUgOS45MTAxMzA5MywxNy44OTkgMTMuODAwMTMwOSwyNS4wNTYgQzExLjU4MTEzMDksMjguNDkgOS4yODIxMzA5MywzMS44ODMgMTQuNDcwMTMwOSwzOC40MzEgQzEyLjYzNTEzMDksNDIuMDc3IDEzLjc3MzEzMDksNDYuMDMzIDE4LjA5NjEzMDksNTAuODIgQzE2Ljk1NTEzMDksNTUuOTQ3IDE5LjE5ODEzMDksNTkuNTYzIDIzLjIyMTEzMDksNjIuMzgyIEMyMi40NjgxMzA5LDY5LjM5NyAyOS42NTQxMzA5LDczLjQ3NiAzMS43OTkxMzA5LDc0LjkyOSBDMzIuNjIzMTMwOSw3OS4wMTYgMzQuMzQwMTMwOSw4Mi44NzQgNDIuNTQ3MTMwOSw4NS4wMDYgQzQzLjkwMTEzMDksOTEuMDk4IDQ4LjgzMzEzMDksOTIuMTUgNTMuNjEwMTMwOSw5My40MjggQzM3LjgyMzEzMDksMTAyLjYwNSAyNC4yODUxMzA5LDExNC42NzggMjQuMzc3MTMwOSwxNDQuMzAzIEwyMi4wNjQxMzA5LDE0OC40MjggQzMuOTYyMTMwOTMsMTU5LjQzNiAtMTIuMzIzODY5MSwxOTQuODE4IDEzLjE0NDEzMDksMjIzLjU3NiBDMTQuODA3MTMwOSwyMzIuNTc4IDE3LjU5NzEzMDksMjM5LjA0NCAyMC4wODExMzA5LDI0Ni4yIEMyMy43OTYxMzA5LDI3NS4wMzYgNDguMDQzMTMwOSwyODguNTM5IDU0LjQzOTEzMDksMjkwLjEzNiBDNjMuODEwMTMwOSwyOTcuMjc0IDczLjc5MTEzMDksMzA0LjA0NyA4Ny4yOTgxMzA5LDMwOC43OTIgQzEwMC4wMzAxMzEsMzIxLjkyMyAxMTMuODI0MTMxLDMyNi45MjggMTI3LjY5MzEzMSwzMjYuOTIgQzEyNy44OTcxMzEsMzI2LjkyIDE1NS45NzAxMzEsMzIxLjkyNCAxNjguNzAzMTMxLDMwOC43OTIgQzE4Mi4yMDkxMzEsMzA0LjA0NyAxOTIuMTkwMTMxLDI5Ny4yNzQgMjAxLjU2MjEzMSwyOTAuMTM2IEMyMDcuOTU3MTMxLDI4OC41MzkgMjMyLjIwNDEzMSwyNzUuMDM2IDIzNS45MTkxMzEsMjQ2LjIgQzIzOC40MDMxMzEsMjM5LjA0NCAyNDEuMTkzMTMxLDIzMi41NzggMjQyLjg1NzEzMSwyMjMuNTc2IEMyNjguMzIzMTMxLDE5NC44MTUgMjUyLjAzODEzMSwxNTkuNDMyIDIzMy45MzYxMzEsMTQ4LjQyNCBMMjMxLjYyMDEzMSwxNDQuMjk5IEMyMzEuNzEyMTMxLDExNC42NzcgMjE4LjE3NDEzMSwxMDIuNjAzIDIwMi4zODcxMzEsOTMuNDI0IEMyMDcuMTYzMTMxLDkyLjE0NiAyMTIuMDk2MTMxLDkxLjA5NCAyMTMuNDQ5MTMxLDg1LjAwMiBDMjIxLjY1NjEzMSw4Mi44NjkgMjIzLjM3NDEzMSw3OS4wMTIgMjI0LjE5NzEzMSw3NC45MjUgQzIyNi4zNDMxMzEsNzMuNDcyIDIzMy41MjgxMzEsNjkuMzkzIDIzMi43NzYxMzEsNjIuMzc4IEMyMzYuNzk4MTMxLDU5LjU1OSAyMzkuMDQxMTMxLDU1Ljk0MiAyMzcuOTAwMTMxLDUwLjgxNiBDMjQyLjIyNDEzMSw0Ni4wMjkgMjQzLjM2MTEzMSw0Mi4wNzMgMjQxLjUyNjEzMSwzOC40MjYgQzI0Ni43MTUxMzEsMzEuODgyIDI0NC40MTMxMzEsMjguNDg5IDI0Mi4xOTcxMzEsMjUuMDU1IEMyNDYuMDg1MTMxLDE3Ljg5OCAyNDIuNjU0MTMxLDEwLjIyMyAyMzEuNzg4MTMxLDExLjUwOSBDMjI3LjQ2NzEzMSw1LjA2MSAyMTguMDQ0MTMxLDYuNTI1IDIxNi41ODYxMzEsNi41NTUgQzIxNC45NTYxMzEsNC40ODYgMjEyLjgwNDEzMSwyLjcxMyAyMDYuMTgxMTMxLDMuNTcyIEMyMDEuODkyMTMxLC0wLjMxMSAxOTcuMDk2MTMxLDAuMzUxIDE5Mi4xNDkxMzEsMi4yNTkgQzE4Ni4yNzUxMzEsLTIuMzc2IDE4Mi4zODgxMzEsMS4zMzkgMTc3Ljk0ODEzMSwyLjc0NCBDMTcwLjgzNzEzMSwwLjQyIDE2OS4yMTAxMzEsMy42MDMgMTY1LjcxNjEzMSw0LjkgQzE1Ny45NjAxMzEsMy4yNjEgMTU1LjYwMzEzMSw2LjgyOSAxNTEuODg1MTMxLDEwLjU5NSBMMTQ3LjU2MDEzMSwxMC41MDkgQzEzNS44NjIxMzEsMTcuNDAzIDEzMC4wNTAxMzEsMzEuNDQxIDEyNy45OTAxMzEsMzguNjU4IEMxMjUuOTI5MTMxLDMxLjQ0IDEyMC4xMzExMzEsMTcuNDAyIDEwOC40MzUxMzEsMTAuNTA5IEwxMDQuMTEwMTMxLDEwLjU5NSBDMTAwLjM4NzEzMSw2LjgyOSA5OC4wMzExMzA5LDMuMjYxIDkwLjI3NTEzMDksNC45IEM4Ni43ODAxMzA5LDMuNjAzIDg1LjE1OTEzMDksMC40MiA3OC4wNDIxMzA5LDIuNzQ0IEM3NS4xMjgxMzA5LDEuODIyIDcyLjQ0ODEzMDksLTAuMDk0IDY5LjI5MzEzMDksMC4wMDQgTC0xMSwxNDEiPiYjeGE7JiN4YTs8L3BhdGg+JiN4YTsJCTxwYXRoIGZpbGw9IiM3NUE5MjgiIGQ9Ik00Ni4wMDgsMzAuMzM0IEM3Ny4wNDQsNDYuMzM1IDk1LjA4Nyw1OS4yNzkgMTA0Ljk3Miw3MC4zMDMgQzk5LjkxLDkwLjU5MiA3My41MDIsOTEuNTE4IDYzLjg0Niw5MC45NDkgQzY1LjgyMyw5MC4wMjkgNjcuNDczLDg4LjkyNiA2OC4wNTgsODcuMjMzIEM2NS42MzUsODUuNTExIDU3LjA0NCw4Ny4wNTEgNTEuMDQ2LDgzLjY4MiBDNTMuMzUsODMuMjA0IDU0LjQyOCw4Mi43MzkgNTUuNTA1LDgxLjAzOSBDNDkuODM5LDc5LjIzMiA0My43MzUsNzcuNjc0IDQwLjE0NSw3NC42OCBDNDIuMDgyLDc0LjcwNCA0My44OTEsNzUuMTE0IDQ2LjQyMSw3My4zNTkgQzQxLjM0Niw3MC42MjQgMzUuOTMsNjguNDU2IDMxLjcyMiw2NC4yNzUgQzM0LjM0Niw2NC4yMTEgMzcuMTc1LDY0LjI0OSAzNy45OTgsNjMuMjg0IEMzMy4zNTMsNjAuNDA2IDI5LjQzMyw1Ny4yMDYgMjYuMTg5LDUzLjcwNSBDMjkuODYxLDU0LjE0OCAzMS40MTIsNTMuNzY3IDMyLjMsNTMuMTI3IEMyOC43ODgsNDkuNTMgMjQuMzQ0LDQ2LjQ5MyAyMi4yMjUsNDIuMDYxIEMyNC45NTEsNDMuMDAxIDI3LjQ0Niw0My4zNjEgMjkuMjQ0LDQxLjk3OSBDMjguMDUxLDM5LjI4NyAyMi45MzksMzcuNjk5IDE5Ljk5NSwzMS40MDggQzIyLjg2NiwzMS42ODcgMjUuOTEsMzIuMDM0IDI2LjUxOSwzMS40MDggQzI1LjE4NywyNS45OCAyMi45MDEsMjIuOTI4IDIwLjY1OSwxOS43NjYgQzI2LjgwMiwxOS42NzUgMzYuMTEsMTkuNzkgMzUuNjg5LDE5LjI3MSBMMzEuODksMTUuMzkgQzM3Ljg5MSwxMy43NzQgNDQuMDMxLDE1LjY0OSA0OC40ODksMTcuMDQxIEM1MC40OSwxNS40NjIgNDguNDUzLDEzLjQ2NSA0Ni4wMTEsMTEuNDI2IEM1MS4xMTEsMTIuMTA3IDU1LjcxOSwxMy4yNzkgNTkuODg1LDE0Ljg5NCBDNjIuMTEsMTIuODg1IDU4LjQ0LDEwLjg3NSA1Ni42NjQsOC44NjYgQzY0LjU0MywxMC4zNiA2Ny44ODEsMTIuNDYxIDcxLjE5OCwxNC41NjQgQzczLjYwNSwxMi4yNTcgNzEuMzM2LDEwLjI5NiA2OS43MTIsOC4yODggQzc1LjY1MywxMC40ODggNzguNzEzLDEzLjMyOSA4MS45MzQsMTYuMTMzIEM4My4wMjYsMTQuNjU5IDg0LjcwOSwxMy41NzggODIuNjc3LDEwLjAyMiBDODYuODk1LDEyLjQ1MyA5MC4wNzIsMTUuMzE4IDkyLjQyMiwxOC41MjggQzk1LjAzMiwxNi44NjYgOTMuOTc3LDE0LjU5NCA5My45OTEsMTIuNDk5IEM5OC4zNzUsMTYuMDY1IDEwMS4xNTcsMTkuODYgMTA0LjU2MiwyMy41NjUgQzEwNS4yNDgsMjMuMDY1IDEwNS44NDgsMjEuMzcyIDEwNi4zNzksMTguNjkzIEMxMTYuODM2LDI4LjgzOCAxMzEuNjEzLDU0LjM5MyAxMTAuMTc3LDY0LjUyNSBDOTEuOTM0LDQ5LjQ3OSA3MC4xNDYsMzguNTQyIDQ2LjAwMSwzMC4zMzggTDQ2LjAwOCwzMC4zMzQiPiYjeGE7JiN4YTs8L3BhdGg+JiN4YTsJCTxwYXRoIGZpbGw9IiM3NUE5MjgiIGQ9Ik0yMTAuNjg2LDMwLjMzNCBDMTc5LjY1NCw0Ni4zMzcgMTYxLjYxMSw1OS4yNzcgMTUxLjcyNyw3MC4zMDMgQzE1Ni43ODksOTAuNTkyIDE4My4xOTYsOTEuNTE4IDE5Mi44NTIsOTAuOTQ5IEMxOTAuODc1LDkwLjAyOSAxODkuMjI1LDg4LjkyNiAxODguNjQxLDg3LjIzMyBDMTkxLjA2NCw4NS41MTEgMTk5LjY1NSw4Ny4wNTEgMjA1LjY1Miw4My42ODIgQzIwMy4zNDgsODMuMjA0IDIwMi4yNzEsODIuNzM5IDIwMS4xOTMsODEuMDM5IEMyMDYuODYsNzkuMjMyIDIxMi45NjQsNzcuNjc0IDIxNi41NTMsNzQuNjggQzIxNC42MTYsNzQuNzA0IDIxMi44MDcsNzUuMTE0IDIxMC4yNzcsNzMuMzU5IEMyMTUuMzUzLDcwLjYyNCAyMjAuNzY5LDY4LjQ1NiAyMjQuOTc3LDY0LjI3NSBDMjIyLjM1Miw2NC4yMTEgMjE5LjUyMyw2NC4yNDkgMjE4LjcwMSw2My4yODQgQzIyMy4zNDYsNjAuNDA2IDIyNy4yNjYsNTcuMjA2IDIzMC41MSw1My43MDUgQzIyNi44MzcsNTQuMTQ4IDIyNS4yODcsNTMuNzY3IDIyNC4zOTksNTMuMTI3IEMyMjcuOTEsNDkuNTMgMjMyLjM1NSw0Ni40OTMgMjM0LjQ3NCw0Mi4wNjEgQzIzMS43NDcsNDMuMDAxIDIyOS4yNTIsNDMuMzYxIDIyNy40NTQsNDEuOTc5IEMyMjguNjQ3LDM5LjI4NyAyMzMuNzYsMzcuNjk5IDIzNi43MDMsMzEuNDA4IEMyMzMuODMzLDMxLjY4NyAyMzAuNzg4LDMyLjAzNCAyMzAuMTc5LDMxLjQwOCBDMjMxLjUxNCwyNS45NzggMjMzLjgsMjIuOTI2IDIzNi4wNDIsMTkuNzY0IEMyMjkuODk5LDE5LjY3MyAyMjAuNTkxLDE5Ljc4OCAyMjEuMDEyLDE5LjI2OSBMMjI0LjgxMSwxNS4zODcgQzIxOC44MSwxMy43NzIgMjEyLjY3LDE1LjY0NyAyMDguMjEyLDE3LjAzOSBDMjA2LjIxMSwxNS40NiAyMDguMjQ3LDEzLjQ2MyAyMTAuNjg5LDExLjQyNCBDMjA1LjU5LDEyLjEwNCAyMDAuOTgxLDEzLjI3NyAxOTYuODE2LDE0Ljg5MiBDMTk0LjU5LDEyLjg4MyAxOTguMjYxLDEwLjg3MyAyMDAuMDM3LDguODY0IEMxOTIuMTU4LDEwLjM1OCAxODguODIsMTIuNDU5IDE4NS41MDIsMTQuNTYyIEMxODMuMDk1LDEyLjI1NSAxODUuMzY1LDEwLjI5NCAxODYuOTg5LDguMjg2IEMxODEuMDQ4LDEwLjQ4NiAxNzcuOTg4LDEzLjMyNyAxNzQuNzY3LDE2LjEzMSBDMTczLjY3NCwxNC42NTcgMTcxLjk5MiwxMy41NzYgMTc0LjAyMywxMC4wMiBDMTY5LjgwNiwxMi40NTEgMTY2LjYyOSwxNS4zMTYgMTY0LjI3OSwxOC41MjYgQzE2MS42NjksMTYuODY0IDE2Mi43MjQsMTQuNTkxIDE2Mi43MSwxMi40OTcgQzE1OC4zMjYsMTYuMDYzIDE1NS41NDQsMTkuODU3IDE1Mi4xMzksMjMuNTYzIEMxNTEuNDUzLDIzLjA2MyAxNTAuODUzLDIxLjM3IDE1MC4zMjIsMTguNjkgQzEzOS44NjUsMjguODM2IDEyNS4wODgsNTQuMzkxIDE0Ni41MjQsNjQuNTIzIEMxNjQuNzU3LDQ5LjQ3MyAxODYuNTQ0LDM4LjUzOCAyMTAuNjksMzAuMzM0IEwyMTAuNjg2LDMwLjMzNCI+JiN4YTsmI3hhOzwvcGF0aD4mI3hhOwkJPHBhdGggZmlsbD0iI0JDMTE0MiIgZD0iTTE2NS45MzMsMjM2LjkzMyBDMTY2LjA0MSwyNTUuODY2IDE0OS40ODQsMjcxLjI5NSAxMjguOTUzLDI3MS4zOTQgQzEwOC40MjEsMjcxLjQ5NCA5MS42ODksMjU2LjIyNyA5MS41ODEsMjM3LjI5NCBDOTEuNTgsMjM3LjE3NCA5MS41OCwyMzcuMDU0IDkxLjU4MSwyMzYuOTMzIEM5MS40NzMsMjE4LjAwMSAxMDguMDI5LDIwMi41NzIgMTI4LjU2MSwyMDIuNDcyIEMxNDkuMDkzLDIwMi4zNzIgMTY1LjgyNCwyMTcuNjM5IDE2NS45MzMsMjM2LjU3MiBMMTY1LjkzMywyMzYuOTMzIj4mI3hhOyYjeGE7PC9wYXRoPiYjeGE7CQk8cGF0aCBmaWxsPSIjQkMxMTQyIiBkPSJNMTA3LjI0NiwxMzkuMDA0IEMxMjIuNjUsMTQ5LjA5NyAxMjUuNDI3LDE3MS45NzMgMTEzLjQ0OCwxOTAuMDk5IEMxMDEuNDY5LDIwOC4yMjYgNzkuMjcxLDIxNC43NCA2My44NjcsMjA0LjY0OCBDNDguNDYzLDE5NC41NTUgNDUuNjg3LDE3MS42NzkgNTcuNjY1LDE1My41NTMgQzY5LjY0NCwxMzUuNDI2IDkxLjg0MiwxMjguOTEyIDEwNy4yNDYsMTM5LjAwNCI+JiN4YTsmI3hhOzwvcGF0aD4mI3hhOwkJPHBhdGggZmlsbD0iI0JDMTE0MiIgZD0iTTE0OC44MjIsMTM3LjE3NyBDMTMzLjQxOSwxNDcuMjY5IDEzMC42NDIsMTcwLjE0NiAxNDIuNjIsMTg4LjI3MiBDMTU0LjU5OSwyMDYuMzk5IDE3Ni43OTcsMjEyLjkxMyAxOTIuMjAxLDIwMi44MiBDMjA3LjYwNSwxOTIuNzI4IDIxMC4zODIsMTY5Ljg1MiAxOTguNDAzLDE1MS43MjUgQzE4Ni40MjUsMTMzLjU5OSAxNjQuMjI3LDEyNy4wODUgMTQ4LjgyMiwxMzcuMTc3Ij4mI3hhOyYjeGE7PC9wYXRoPiYjeGE7CQk8cGF0aCBmaWxsPSIjQkMxMTQyIiBkPSJNMzAuMjU4LDE1NS41MDQgQzQ2Ljg4OSwxNTEuMDQ2IDM1Ljg3MywyMjQuMzA3IDIyLjM0MSwyMTguMjk2IEM3LjQ1NiwyMDYuMzI0IDIuNjYyLDE3MS4yNjMgMzAuMjU4LDE1NS41MDQiPiYjeGE7JiN4YTs8L3BhdGg+JiN4YTsJCTxwYXRoIGZpbGw9IiNCQzExNDIiIGQ9Ik0yMjIuNDUzLDE1NC41OTEgQzIwNS44MiwxNTAuMTM0IDIxNi44MzgsMjIzLjM5OCAyMzAuMzcsMjE3LjM4NyBDMjQ1LjI1NSwyMDUuNDE0IDI1MC4wNDksMTcwLjM0OSAyMjIuNDUzLDE1NC41OTEiPiYjeGE7JiN4YTs8L3BhdGg+JiN4YTsJCTxwYXRoIGZpbGw9IiNCQzExNDIiIGQ9Ik0xNjUuOTQ2LDEwMC4wMzQgQzE5NC42NDcsOTUuMTg4IDIxOC41MjksMTEyLjI0IDIxNy41NjUsMTQzLjM2MiBDMjE2LjYyMSwxNTUuMjk0IDE1NS4zNzIsMTAxLjgxMSAxNjUuOTQ2LDEwMC4wMzQiPiYjeGE7JiN4YTs8L3BhdGg+JiN4YTsJCTxwYXRoIGZpbGw9IiNCQzExNDIiIGQ9Ik04Ni42NDYsOTkuMTIxIEM1Ny45NDMsOTQuMjc0IDM0LjA2MywxMTEuMzMgMzUuMDI3LDE0Mi40NSBDMzUuOTcxLDE1NC4zODEgOTcuMjIxLDEwMC44OTggODYuNjQ2LDk5LjEyMSI+JiN4YTsmI3hhOzwvcGF0aD4mI3hhOwkJPHBhdGggZmlsbD0iI0JDMTE0MiIgZD0iTTEyNy44NzQsOTEuODYzIEMxMTAuNzQ0LDkxLjQxNyA5NC4zMDQsMTA0LjU3NiA5NC4yNjQsMTEyLjIwOSBDOTQuMjE3LDEyMS40ODMgMTA3LjgwOCwxMzAuOTc5IDEyNy45OTEsMTMxLjIyIEMxNDguNjAxLDEzMS4zNjcgMTYxLjc1MywxMjMuNjE5IDE2MS44MTksMTE0LjA0OCBDMTYxLjg5NSwxMDMuMjA0IDE0My4wNzQsOTEuNjk1IDEyNy44NzQsOTEuODYyIEwxMjcuODc0LDkxLjg2MyI+JiN4YTsmI3hhOzwvcGF0aD4mI3hhOwkJPHBhdGggZmlsbD0iI0JDMTE0MiIgZD0iTTEyOC45MiwyODIuMDQzIEMxNDMuODU1LDI4MS4zOTEgMTYzLjg5NSwyODYuODUzIDE2My45MzUsMjk0LjEgQzE2NC4xODMsMzAxLjEzNiAxNDUuNzYsMzE3LjAzNCAxMjcuOTMsMzE2LjcyNyBDMTA5LjQ2NCwzMTcuNTI0IDkxLjM1NywzMDEuNjAxIDkxLjU5NCwyOTYuMDgyIEM5MS4zMTcsMjg3Ljk5IDExNC4wNzgsMjgxLjY3MiAxMjguOTIsMjgyLjA0MyI+JiN4YTsmI3hhOzwvcGF0aD4mI3hhOwkJPHBhdGggZmlsbD0iI0JDMTE0MiIgZD0iTTczLjc1NiwyMzkuMDk4IEM4NC4zODksMjUxLjkwOCA4OS4yMzcsMjc0LjQxNCA4MC4zNjMsMjgxLjA0OSBDNzEuOTY4LDI4Ni4xMTQgNTEuNTgxLDI4NC4wMjggMzcuMDkxLDI2My4yMTEgQzI3LjMxOCwyNDUuNzQzIDI4LjU3NywyMjcuOTY4IDM1LjQzOSwyMjIuNzQ2IEM0NS43LDIxNi40OTYgNjEuNTU0LDIyNC45MzkgNzMuNzU3LDIzOS4wOTggTDczLjc1NiwyMzkuMDk4Ij4mI3hhOyYjeGE7PC9wYXRoPiYjeGE7CQk8cGF0aCBmaWxsPSIjQkMxMTQyIiBkPSJNMTgxLjk1NiwyMzUuMDM3IEMxNzAuNDUxLDI0OC41MTIgMTY0LjA0NSwyNzMuMDkgMTcyLjQzNywyODEuMDA2IEMxODAuNDYyLDI4Ny4xNTYgMjAyLjAwNCwyODYuMjk2IDIxNy45MTYsMjY0LjIxNyBDMjI5LjQ3LDI0OS4zODggMjI1LjU5OSwyMjQuNjIzIDIxOC45OTksMjE4LjA0NyBDMjA5LjE5NSwyMTAuNDY0IDE5NS4xMiwyMjAuMTY5IDE4MS45NTYsMjM1LjAzMyBMMTgxLjk1NiwyMzUuMDM3Ij4mI3hhOyYjeGE7PC9wYXRoPiYjeGE7CTwvZz4mI3hhOzwvc3ZnPg==;" vertex="1" parent="1">
          <mxGeometry x="71" y="105" width="40.82" height="50" as="geometry" />
        </mxCell>
      </root>
    </mxGraphModel>
  </diagram>
</mxfile>
